<svg width="48" height="46" viewBox="0 0 48 46" fill="none" xmlns="http://www.w3.org/2000/svg">
<path d="M47.7637 16.7714C47.5628 16.7677 47.3619 16.7612 47.161 16.7612C31.7335 16.7612 16.306 16.7612 0.877636 16.7612H0.288886C-0.00316308 14.6406 0.541872 12.9385 2.48484 11.8643C9.01503 8.25549 15.5387 4.63463 22.0791 1.04447C22.6316 0.741257 23.291 0.633366 23.9003 0.434326C23.9626 0.434326 24.024 0.434326 24.0863 0.434326C24.6955 0.633366 25.3531 0.742187 25.9046 1.04447C32.4515 4.63742 38.9817 8.26014 45.5184 11.8708C46.3853 12.3498 47.0503 13.0111 47.4437 13.9253C47.5684 14.2165 47.6576 14.5225 47.7637 14.8219V16.7714ZM23.9719 11.3099C26.431 11.3099 28.8893 11.3108 31.3484 11.309C31.7884 11.309 32.059 11.0988 31.9456 10.8253C31.8777 10.6598 31.7019 10.5091 31.5382 10.417C29.6259 9.34463 27.7108 8.27874 25.7883 7.22401C24.5671 6.55434 23.3413 6.57853 22.1238 7.25377C20.2338 8.30199 18.3383 9.34091 16.4576 10.4068C16.2642 10.5165 16.0344 10.7853 16.04 10.9742C16.0503 11.335 16.4037 11.3108 16.6874 11.3108C19.1149 11.309 21.5434 11.3099 23.9709 11.3099H23.9719Z" fill="white"/>
<path d="M41.3525 37.4158V39.98H44.4534V42.4885H46.6327V45.103H1.64587V42.5006H3.91623V40.0117H6.913V37.4158H41.3525Z" fill="white"/>
<path d="M15.8744 22.2478H14.3713V22.8626C14.3713 26.8359 14.3648 30.8093 14.3806 34.7827C14.3825 35.2049 14.2727 35.3286 13.8412 35.324C11.7382 35.3007 9.63436 35.3137 7.53142 35.3128C7.38075 35.3128 7.23007 35.2979 7.02359 35.2877V22.2655H5.48428C5.48428 21.527 5.4015 20.8127 5.50475 20.1262C5.63589 19.252 6.39019 18.6539 7.2775 18.6455C9.51996 18.6241 11.7624 18.6223 14.0049 18.6455C15.0382 18.6558 15.7702 19.384 15.866 20.4676C15.9162 21.0331 15.8744 21.607 15.8744 22.2478Z" fill="white"/>
<path d="M29.3915 22.2563H27.8159V35.2822H20.497V22.2711H19.0014C19.0014 21.5447 18.94 20.862 19.0163 20.197C19.1176 19.3237 19.9212 18.6531 20.8355 18.6447C23.078 18.6242 25.3214 18.6215 27.5638 18.6466C28.5655 18.6577 29.3152 19.3962 29.3831 20.3961C29.424 20.9932 29.3905 21.595 29.3905 22.2563H29.3915Z" fill="white"/>
<path d="M34.1276 22.2404H32.552C32.552 21.5288 32.4915 20.8462 32.5669 20.1793C32.6636 19.3282 33.4523 18.6586 34.3555 18.6493C36.6147 18.6251 38.8748 18.6186 41.133 18.653C42.1664 18.6688 42.9077 19.4854 42.9365 20.5225C42.9523 21.0768 42.9393 21.633 42.9393 22.2394H41.3591V35.2849H34.1267V22.2404H34.1276Z" fill="white"/>
</svg>
