<svg xmlns="http://www.w3.org/2000/svg" width="275" height="49.171" viewBox="0 0 275 49.171"><g transform="translate(-21.5 -267.8)"><path d="M225.6,276.926a5.618,5.618,0,0,0-1.7-4.445l.092-.137a5.158,5.158,0,0,1,3.3,3.162c1.146-3.941,5.545-5.362,9.028-4.9v.183c-2.566.5-4.445,2.291-4.445,6.691v23.417s1.1,1.008,1.421,1.237c.687.642,1.1.962,1.787.962a2.547,2.547,0,0,0,1.375-.5,1.783,1.783,0,0,1,.229-.183l.229.321-6.186,5-5.132-4.858Z" transform="translate(-109.649 -1.473)"/><path d="M150.508,302.794l-.229-.321a2.387,2.387,0,0,1-3.483-.137c-.962-.779-1.65-1.375-1.65-1.375v-14.8l-3.9-4.949-7.378,5v-8.432c0-4.308,1.65-6.278,4.445-6.828v-.229c-5.087-.55-8.294,2.2-9.028,4.9a4.819,4.819,0,0,0-3.3-3.162l-.092.137a5.5,5.5,0,0,1,1.7,4.4v26.029l5.132,4.9,4.583-4.033-3.483-3.025V286.893l2.475-1.7,2.52,3.574v14.252l5.5,4.9Z" transform="translate(-56.558 -1.542)"/><path d="M311.145,276.562l-4.353,4.262-4.353-4.262,4.353-4.262Zm-19.522,33.865a6.985,6.985,0,0,0-6.186-2.933,5.4,5.4,0,0,0-5.637,5.133c0,3.758,3.345,6.782,9.944,6.782,11.365,0,14.481-8.386,21.034-8.386V287.1l-3.987-5.041-4.949,4.124,2.7,3.437v19.247c0,5.82-6.874,8.8-11.09,8.8-4.491,0-7.836-2.383-7.836-5.27a2.951,2.951,0,0,1,3.07-2.933,3.557,3.557,0,0,1,2.7,1.1Z" transform="translate(-139.932 -2.438)"/><path d="M52.616,301.3l2.612-2.337c-.092-.275-.458-1.329-.871-2.658-.871-3.162-2.245-7.974-2.245-7.974l-2.062-1.879V288.6c0,4.583-3.3,6.92-7.79,8.8,6.278.367,9.715,3.3,10.357,3.9m-1.1-32.949a12.962,12.962,0,0,0-1.466,6.782v7.561L59.9,268.212a7.99,7.99,0,0,0,4.72,1.6,7.833,7.833,0,0,0,4.766-1.329l.137.046c-.55,1.741-3.254,6.141-7.607,6.141a9.4,9.4,0,0,1-4.812-1.466l-4.72,6.965,5.362,4.262s2.291,7.653,3.208,10.632c1.008,3.3,1.971,3.712,3.9,4.583.779.367,1.558.687,2.658,1.191a4.413,4.413,0,0,0,2.154.5,2.526,2.526,0,0,0,1.329-.412l.229.275-5.362,5.132s-3.345-1.512-5.728-2.566a8.632,8.632,0,0,1-4.674-4.262c-2.337,1.97-5.224,4.628-7.561,6.782a18.621,18.621,0,0,0-10.677-3.07c-8.019,0-15.122,3.8-15.122,8.249,0,2.841,2.108,4.353,4.628,4.353l-.046.412a4.8,4.8,0,0,1-5.178-4.949c0-7.561,9.669-13.244,18.147-13.794.871-1.146,2.108-2.566,2.108-6.507V279.9a4.248,4.248,0,0,1,.825-2.841h0a9.114,9.114,0,0,0-.321,2.979v11.411a8.4,8.4,0,0,1-2.108,6.049c.321,0,.6-.046.917-.046h.5c1.879-2.108,2.062-4.445,2.062-6.645V279.669c.046-3.712,1.237-5.132,3.574-7.378.55-.55,1.146-1.1,1.558-1.512l-.092-.092c-2.841,2.108-5.178,3.8-8.844,3.8-2.933,0-5.453-1.283-8.2-1.283a5.511,5.511,0,0,0-3.574,1.237l-.092-.046c1.191-1.971,4.4-6.6,9.165-6.6,3.574,0,5.224,1.512,8.753,1.512a11.886,11.886,0,0,0,5.407-1.054Z" transform="translate(0 0)"/><path d="M257.978,309.127l5.5-3.483-5.5-7.195Zm-6.278-8.753,10.448-6.874,7.011,9.165-11.181,7.011v2.887s4.537,2.2,6.141,2.979a5.22,5.22,0,0,0,2.475.687,7.3,7.3,0,0,0,2.7-.642c.55-.275,1.054-.5,1.054-.5v.6l-9.165,4.629-9.486-4.858Z" transform="translate(-124.709 -13.923)"/><path d="M547.724,309.127l5.5-3.483-5.5-7.195Zm-6.324-8.753,10.494-6.874,7.011,9.165-11.182,7.011v2.887s4.537,2.2,6.141,2.979a5.219,5.219,0,0,0,2.475.687,7.3,7.3,0,0,0,2.7-.642c.183-.092.871-.412.871-.412l.183.458-9.165,4.628-9.486-4.857V300.374Z" transform="translate(-281.652 -13.923)"/><path d="M298.624,309.127l5.5-3.483-5.5-7.195Zm-6.324-8.753,10.494-6.874,7.011,9.165-11.182,7.011v2.887s4.537,2.2,6.141,2.979a5.6,5.6,0,0,0,2.475.55,6.4,6.4,0,0,0,2.658-.733c.5-.275,1.466-.733,1.466-.733v.55l-9.578,5.133-9.486-4.583Z" transform="translate(-146.704 -13.923)"/><path d="M179,300.428l10.219-6.828,6.965,6.461v13.244s1.054.825,2.016,1.6a2.485,2.485,0,0,0,1.6.779,2.544,2.544,0,0,0,1.512-.779l.275.367-6.141,5.087L190.09,315.6l-4.72,4.766L179,315.413Zm6.278,12.648s1.925,1.466,2.291,1.787a2.083,2.083,0,0,0,1.375.6,1.4,1.4,0,0,0,.917-.367V303.132l-4.628-4.491v14.435Z" transform="translate(-85.325 -13.977)"/><path d="M480.093,298.424l-3.941-5.041-7.7,5.041-3.941-5.041-4.812,3.666,2.52,3.162V315.2l5.866,4.9,4.078-3.8-3.666-3.254V298.974l2.933-1.925,2.429,3.07V315.1l5.866,4.9,4.079-3.8-3.666-3.254V298.883l3.07-1.971,2.474,3.116v14.985l5.866,4.9,5.82-4.72-.183-.275-.183.092a1.705,1.705,0,0,1-1.146.321,3.186,3.186,0,0,1-2.2-.962c-.458-.412-1.7-1.512-1.7-1.512V298.241L488.02,293.2Z" transform="translate(-237.392 -13.76)"/><path d="M597.872,293.775l-6.965,9.394,5.682,4.078v6.874l-8.249,6.232a9.189,9.189,0,0,0-5.407-1.7,8.315,8.315,0,0,0-4.858,1.7l-.275-.229,7.332-9.9-5.224-2.887v-7.653l8.111-6.186a8,8,0,0,0,5,1.558,7.1,7.1,0,0,0,4.537-1.558Zm-2.154,2.016-.137-.092c-.55.642-2.933,3.116-5.912,3.116a6.285,6.285,0,0,1-3.574-1.008v5.728l2.75,1.558Zm-5.408,15.122-3.391-2.337-7.1,9.532.137.137c1.008-1.008,3.254-3.208,6.37-3.208a7.889,7.889,0,0,1,3.987,1.008Z" transform="translate(-301.372 -13.923)"/><path d="M435.2,285.681l4.858-3.666L444,287.056v14.618s.825.733,1.421,1.283a3.076,3.076,0,0,0,2.062.871,2.578,2.578,0,0,0,1.466-.458c.046.046.183.229.183.229l-5.591,5.087c-.825-.733-5.82-4.857-5.82-4.857V288.843Zm4.812-13.381-4.354,4.262,4.354,4.262,4.353-4.262Z" transform="translate(-224.119 -2.438)"/><path d="M386.26,300.895a13.531,13.531,0,0,0,3.574-.458V276.057c-.917-.046-2.062-.183-2.612-.229v13.244c0,6.416-6.691,8.615-8.569,9.578a14.167,14.167,0,0,0,7.607,2.245m-7.882-2.475c1.237-1.146,2.337-3.162,2.337-6.37V274.407c-.367-.092-1.1-.275-1.421-.367V292.1a8.2,8.2,0,0,1-1.787,5.682c.229.183.642.458.871.642m22.317-29.879a8.487,8.487,0,0,1-8.936,7.561,13.739,13.739,0,0,1-1.421-.046V300.3a13.609,13.609,0,0,0,8.89-9.165l.183.046a16.15,16.15,0,0,1-15.9,15.214c-9.074,0-15.81-6.92-15.81-16.36a16.616,16.616,0,0,1,8.157-14.572l.137.137a14.652,14.652,0,0,0-3.666,10.082,15.791,15.791,0,0,0,4.949,11.915,8.9,8.9,0,0,0,1.6-5.682V273.995a12.99,12.99,0,0,0-2.52-.321,10.277,10.277,0,0,0-8.432,3.666l-.138-.092c.779-5.453,4.72-9.348,11.915-9.348,6.461,0,9.807,2.383,14.848,2.383A10.119,10.119,0,0,0,400.6,268.5Z" transform="translate(-187.551 -0.054)"/></g></svg>