<svg xmlns="http://www.w3.org/2000/svg" width="399.594"  fill="#333E48"  height="57.521" viewBox="0 0 399.594 57.521"><g><path d="M361.688 34.496l.023.004c.066.021.189.053.377.058.168.018.189.141.189.141l.09.271s.254.092.355.208c.111.125-.084.112-.141.154-.053.045-.242.023-.242.023l.139.244-.244.15-.383-.117.143.189-.143.147s-.57-.173-.57-.237c0-.059-.166-.161-.166-.161l-.438.036.074-.182.459-.149s.348-.136.404-.162c.055-.013-.309-.145-.342-.175-.033-.038-.158-.137-.158-.137s-.064.009-.154.009c-.148.075-.285.142-.432.222l.148.035-.246.242c-.016.021-.045.095-.207.121-.172.041-.355.033-.449.041a.195.195 0 0 0-.043.004c-.094.045-.158.092-.234.131l.164-.051s.168-.025.168 0c0 .019.15.134.15.134s.141.081.1.092c-.031.019-.051.045-.168.045-.111 0-.25.015-.301.025l-.27.066.039-.163s-.057-.018-.1-.012c-.561.348-1.082.719-1.568 1.128-.004.056-.016.103-.016.103l.275-.017.404.14.156.078.324-.02-.096.128-.057.216.006.204.152.045.277-.222.021-.283s.291-.041.424-.115c.139-.077.305-.24.305-.284 0-.058-.074-.224-.074-.224s.217-.146.246-.188c.039-.05.059-.256.059-.256s-.049-.158.156-.18c.197-.016.4-.016.441-.018.047-.006.154-.035.258-.011a.19.19 0 0 1 .139.122l.223.008-.129.192-.168.158.232.042.15.047.316-.2.164-.149s.02.039.031.072c.707-.83 1.545-1.54 2.443-2.107l-.213-.336-.664.012c-.623.193-1.223.417-1.808.669m-4.245 4.766l.104.047.484-.055.397-.158.138-.198-.314.075-.1.15-.07-.007-.447.045zm.131-1.016l-.176-.043s-.191.014-.227.051a.493.493 0 0 1-.205.107c-.051 0-.361.158-.361.158l.043.059.234-.039.324-.059.143.111.244-.045.189-.074-.07-.113-.138-.113zm-.035.393l-.189.025-.309.178-.207.405.211.01.119-.255.274-.272.179.007-.244.204.201.011.153-.075.009.156.192-.045.135-.236-.102-.09zm3.285-.863l-.027.009c-.109.021-.133-.009-.197.072-.061.082-.141.104-.141.104l-.23.123.074.027.371-.084c.062-.08.101-.17.15-.251m-1.412 15.437v-.01c0-.102-.053-.307-.105-.394a1.77 1.77 0 0 1-.107-.233l-.037-.119s-.018.049-.064.005c-.053-.052-.188-.175-.188-.175l-.01-.16-.084-.352.031-.131.016-.565-.201-.399.012-.202c.008-.025-.012-.184-.012-.184l.105-.271-.063-.096v-.081l-.02-.149s-.004-.113-.004-.186c0-.029-.008-.08-.01-.131a79.644 79.644 0 0 1-3.633-.469c.972 1.669 2.489 3.141 4.374 4.302m-5.635-8.773c0 1.438.375 2.82 1.047 4.087 1.186.193 2.451.361 3.787.513l-.027-.29s-.063-.077-.133-.119c-.066-.052 0 .022-.066-.052-.057-.063-.311-.218-.311-.218s-.25-.135-.332-.172c-.082-.05-.213-.095-.24-.144-.035-.05-.059-.103-.059-.103s-.303-.539-.369-.615c-.064-.091-.113-.161-.148-.203-.033-.052-.219-.229-.229-.261-.02-.032-.186-.155-.186-.155s-.084-.122-.043-.203a.69.69 0 0 1 .104-.184c.033-.047.012-.128-.014-.164-.027-.06-.031-.036-.027-.103.016-.062-.02-.079.016-.128.031-.049.307-.316.314-.361.01-.044.15-.145.207-.191.055-.051.104-.182.127-.226.018-.052.074-.253.012-.322-.064-.075-.217-.322-.217-.322l-.119-.103-.131.023c-.008.028-.064.043-.084.079a.577.577 0 0 0-.014.063l-.055.047-.139-.029-.146-.072-.158-.045-.154-.16-.199-.09-.051-.213-.232-.227-.076-.043-.125-.029-.146-.018-.205-.036-.137-.017-.16-.162-.297-.196-.184.027s-.148.038-.182.038l-.135-.014a6.79 6.79 0 0 0-.084 1.113m5.627-5.225s-.025.029-.055.051c.236-.018.48-.032.719-.06.09-.202.184-.384.283-.589l-.666.303-.281.295zm13.047-3.61c.115.008.15.029.15.029l.021-.111.215.018.004-.055.229-.086a7.58 7.58 0 0 0-.135-.227l-.215.145s-.297-.063-.324-.042c-.031.014-.213.034-.213.034l.068.162c.001.001.087.124.2.133m1.471 3.626l.02-.038c-.203-.009-.398-.014-.59-.023l.293.077.277-.016zm-1.502-.051s.072-.012.156-.029c-.139-.004-.275-.004-.416-.012l.016.041h.244m.969 2.16v-.031c-.113-.017-.15.102-.15.102l.328.557.078.229.172.249s.078.166.088.208c.012.048.109.245.109.245s.033.135.078.188c.035.051.326.455.371.504.064.047.139.078.311.164.178.111.178.218.178.218l-.025.09.213.119c0-.106 0-.224-.002-.333l-.045.018c-.139.006-.16-.068-.16-.129 0-.053-.127-.208-.137-.339-.021-.126-.143-.335-.143-.335s-.115-.094-.137-.191c-.02-.086-.109-.16-.184-.223-.064-.057-.131-.091-.162-.191-.031-.104-.035-.229-.109-.333-.074-.117-.18-.137-.18-.137s-.031-.042-.055-.101a21.217 21.217 0 0 0-.336-.514c-.029-.048-.101-.034-.101-.034m2.361-1.929l.07-.048-.053-.063-.01-.021c-.244-.018-.49-.028-.734-.039l.094.111.148.043-.156.042v.237l.039.176s.084.026.117.033c.018 0 .074.055.074.055s.137.086.207.094c.059.02.094 0 .094 0 .039-.015.246-.049.246-.049s-.066-.151-.072-.162l-.002-.108-.025-.048-.08-.047-.027-.042v-.083l-.09-.012-.02-.035v-.082l.18.048zm9.439 1.224c.043.031.137.052.137.052s.084.117.129.151c.037.031.166.117.166.117l.088.075-.18.011.084.031.096.115.027.09.076.027s.01.035-.055.174c-.049.143.01.301-.113.508l-.008.004a8.43 8.43 0 0 1 .346 2.237l.078-.094.033-.079.047-.039v.104l-.055.141-.1.074v.109c0 .127-.004.248-.01.384l.061-.005.113.077-.113.024.033.085-.088.024-.016-.004c0 .077-.006.146-.018.23l.027.084.139.086.02.093h-.129l-.057.132-.016.115-.055.07a8.75 8.75 0 0 1-.217.961c.074.012.141.025.193.025.15 0 .205.027.285.019.082-.019.266-.019.352-.019.084.004.064.055.064.055l-.273.038-.574.056-.09-.008a8.62 8.62 0 0 1-.607 1.502c.518-.094 1.014-.18 1.48-.273l.025-.033c.01-.033.119-.086.119-.086s.061-.158.191-.225c.141-.07.178-.141.25-.17.074-.041.195-.07.246-.05.053.017.094.103.094.103l.176-.047s-.072 0 0-.082c.07-.089.172-.271.172-.271l.262-.01.021-.152.627.119-.115.189-.107.143.1.111.008.009c.256-.06.496-.12.738-.192v-.179l.182-.315.078.078.15.305c.334-.102.656-.195.963-.299.393-.865.605-1.77.605-2.697 0-.999-.232-1.974-.682-2.895a32.13 32.13 0 0 0-3.002-.792l-.016.054-.088.027-.043-.115c-.039-.008-.064-.017-.096-.02l-.229.012-.129.07-.133-.075.096-.092a10.847 10.847 0 0 1-.439-.091c-.01.027-.029.049-.041.07-.025.042-.293.089-.293.089l-.076-.099s.012-.063.004-.119l-.004-.02c-.252-.043-.504-.096-.764-.134l-.158.153c-.115.102-.029.122.008.169m1.131 6.5l-.154-.084.105-.072.129.116-.08.04zm4.129-.846l.24-.031.268-.143.025.023-.074.141-.16.094-.307-.041.033-.043h-.025zm-2.353-.637l.303.113-.012.088.102.148.037.051.205-.159.182-.108.086.047.398.055.441.188.205.12.01.099.303.039-.008.127-.133.047.092.018.156.232.133.098.08.139-.16-.041-.248-.042-.154-.286-.211-.045-.229.124.039.062-.135.084-.273-.061-.219.02-.219-.058-.012-.007.201-.084-.072-.152-.117-.213-.225-.064-.311-.117-.15.049-.025-.122.166-.103-.148.013-.105-.116h-.164l-.014-.107.205-.076zm-1.625.202l.162-.107.094.023-.16.186.072.184.105.081v.122l-.195-.109-.078-.196-.111.063.008.181.008.189-.137-.019.023-.218-.117-.18.094-.246.162-.244.236-.076.225-.057.096.021-.207.108-.279.021-.096.189.095.084zm-.278-2.145l.152.027.014.064-.043.068-.055-.064-.068-.095zm.401.365l-.117.064v-.18l-.025-.062.17.089-.028.089zm.056.01l.047.023-.014.127-.018.096h-.072l-.027-.127.084-.119zm.211 3.017l-.088-.044.355-.203.023-.027.09.051-.38.223zm.287-2.742l-.025.043.064.052.02.126-.045.07-.084-.075-.041.075.041.094-.037.088h-.057l-.137-.137.002-.092-.029-.07-.076-.01-.123-.006-.055.106h-.078l.068-.138.076-.032-.012-.064.143.011-.008.047.141-.036.02-.087.09-.05-.037-.065.154.065.025.085zm-.197-.252l-.066.012-.064-.084.064-.091-.084-.056.061-.066.09.051.023.099-.059.038.035.097zm-.119-3.293l.162.055.066.122-.02.175-.125-.027-.02-.17-.111-.039-.088-.061.136-.055zm-.33 2.767l.164.056.107.134-.047.048h-.059l-.055-.117-.111-.016-.051-.062.052-.043zm-.318-.655l.137.107.008.029.072.124-.041.117-.059.04-.014.101.088.075.006.117-.098.034-.037-.126-.072-.025-.066-.018-.07-.204.098.03-.027-.295-.033-.059.108-.047zm-.268-.872l.051-.047.104.017.004.079-.045.289-.053.085-.121-.15-.008-.1.068-.173zm-12.426-3.343l-.225-.158s.266-.294.195-.294c-.072.009-.59.042-.59.042l.064.205-.191.037-.055-.086-.002-.081-.35-.009-.072.146-.203.187.004.123c.564.008 1.109.025 1.652.047l-.227-.159zm15.541 9.263c-.033.01-.074.02-.111.03l.025.008s.053-.019.086-.038m-28.439-13.968c.055 0 .111-.014.145-.02.023 0 .049-.02.082-.039a2.827 2.827 0 0 0-.227.059m.601-.033l.746-.046v.124c.449-.186.914-.34 1.387-.494l.008-.027.4-.162c-.408.064-.814.131-1.217.21l-.314.266-.24-.149c-.158.028-.305.064-.465.099l-.305.179zm-9.457 3.736v-.035c0-.034-.086-.39-.086-.39l-.182-.159s-.254-.15-.287-.15c-.037 0-.271-.009-.271-.009l-.104-.008c-3.014 1.689-5.029 3.806-5.604 6.112.672-.65 1.855-1.253 3.445-1.793.662-1.291 1.714-2.492 3.089-3.568m-3.181 9.705c-1.582-.541-2.752-1.158-3.4-1.803.977 4.61 7.715 8.455 16.773 9.888-6.547-1.356-11.584-4.372-13.373-8.085m3.027-9.182l.143.041s.156-.02.107-.049c-.059-.033-.123-.061-.123-.061l.051-.08c-.065.05-.121.099-.178.149"/><path d="M360.719 54.334s.178.16.205.195c.033.037.26.195.26.195s-.287.005-.398-.053c-.107-.052-.641-.385-.711-.427-.072-.039-.424-.409-.5-.512-.037-.048-.055-.081-.076-.104-2.131-1.258-3.826-2.904-4.854-4.783-2.205-.36-4.111-.791-5.664-1.295 2.057 3.912 7.881 6.984 15.25 8.027a19.622 19.622 0 0 1-3.529-1.291l.017.048zm29.172-6.224c.031.06.098.11.16.151.16-.233.297-.473.424-.711a9.278 9.278 0 0 1-.625.192l.021.043c.006.086-.049.194.02.325m-38.272-9.655l-.111-.164c-1.033.87-1.861 1.83-2.438 2.848a28.392 28.392 0 0 1 1.85-.512c-.078-.023-.098-.051-.098-.051l-.061-.379.02-.189s.094-.422.252-.55c.162-.128.475-.466.586-.591.117-.137.105-.275.105-.275l.086-.02-.191-.117zm.141 2.662c-.051-.047-.15-.098-.15-.098s-.123.102-.123.143c0 .036.164.234.164.234l.025.154.135.248.029.199s.072.062.08.083a.666.666 0 0 0 .066.106l.035.064-.131.03-.176-.187-.076-.069.051-.101s-.039-.088-.07-.113c-.031-.029-.072-.076-.15-.119-.084-.049-.186-.09-.186-.09l.146-.094-.02-.089s-.064-.039-.064-.067v-.121l-.107-.279-.008-.058c-.869.211-1.66.427-2.371.655a6.66 6.66 0 0 0-.682 2.89c0 .931.213 1.835.604 2.7 1.527.504 3.443.954 5.652 1.328a8.968 8.968 0 0 1-.969-4.028c0-.417.031-.829.084-1.233-.121-.037-.104-.037-.172-.059-.066-.018-.201-.086-.201-.086s-.051-.038-.094-.038a.538.538 0 0 1-.191-.05l-.168-.091-.139-.162-.033-.079.109-.133-.039-.206s-.238-.201-.277-.244c-.051-.038-.082-.095-.111-.103-.029-.012-.115-.055-.102-.102.008-.047.023-.03.008-.085-.021-.064-.131-.22-.131-.22s-.16-.203-.197-.268c-.033-.05.001-.111-.05-.162m2.154-5.472l.531-.154s.604-.107.643-.115c.033 0 .039.09.039.09l.316-.039.141-.083.172-.002c.221-.103.441-.2.672-.294-.055.004-.125.049-.291.1-.234.064.094-.113-.256-.151-.057-.021.123-.11.34-.184.207-.063.123-.038.504-.106.375-.096.375.034.375.034s.041 0 .072.009a29.299 29.299 0 0 1 4.166-1.242c.016-.008.041-.013.041-.013s.059-.017.129-.047c-2.906.488-5.588 1.225-7.881 2.161.025.004.035.008.061.013.113.036.226.023.226.023m15.047-2.455s-.48.303-.541.346c-.051.041-.164.374-.164.452 0 .086-.072.273-.072.273s-.434.174-.656.234c-.213.057-.426.243-.635.369-.057.036-.156.056-.273.089-.699 1.014-1.271 2.362-1.682 3.938.713-.025 1.436-.051 2.164-.07l-.078-.184.133.025.072-.125.111.025.129.008.145.025.338.032c.156.019.143-.065.143-.065l.031-.254-.055-.192-.137-.155-.273-.156.021-.085.152-.02.074.058.209-.038-.039-.158.23-.027.148-.093.191-.131s.121-.061.189-.184c.072-.12.346-.156.346-.156l.174-.07-.035-.146-.057-.11-.057-.099.248-.161.074.211-.072.228.104.02v-.612l-.029-.049-.234.049s-.207.014-.291 0c-.094-.013-.123-.154-.123-.154s0-.191-.021-.296c-.039-.103.051-.147.146-.211.104-.065.145-.081.244-.137.104-.054.24-.222.27-.261l.039-.051v-2.201c-.105.01-.225.02-.338.041l-.263.228zm-1.471 3.635c-.033 0-.074.041-.074.041l.053.171-.031.074-.16.029-.104.052-.131.026-.135-.061-.016-.053.158-.09.016-.088-.084-.032.051-.149.131.018.01-.104.104-.073.102.073.098-.03.02.086c-.002 0 .022.094-.008.11m.948.394l-.117.053.125.049-.008.056-.336.042-.211.01-.141.025-.219.025.057-.051.072-.052c.01-.021.055-.063.055-.063h.119l.039-.061s-.104-.013-.123-.013h-.156l-.004-.087.111-.055v-.063l-.041-.052.055-.048.109.037.045-.115-.072-.073.021-.098s-.084.054-.119.028c-.043-.016-.092-.056-.092-.056l.063-.058s-.031-.063-.057-.066c-.02-.018-.123 0-.123 0l.072-.113-.086-.053-.031-.107.074-.051.049.043.072-.158.074.009h.145l-.006.034-.123.107.039.008.121.008.141.043-.068.109s-.125.055-.145.078c-.021.016-.014.047-.014.047h.129s.055-.004.082.035c.016.047-.01.068.049.108a.13.13 0 0 1 .061.102l.082.061c0 .021.041.091.041.091l.033.066-.025.051.064.045.07-.059.072.059-.024.123zm19.744.302l.104.031.117.096.123.056-.029.072.023.077.145.09-.022.057-.061.045.051.093-.094.065.113.16-.063.09c.955.877 1.705 1.822 2.215 2.824 1.602.54 2.779 1.143 3.449 1.793-.549-2.234-2.461-4.283-5.326-5.954-.084.057-.139.11-.139.11v.086l-.156-.092c-.059-.048-.283 0-.283 0v.051l-.143-.079-.064.07-.141-.011s.051.113.076.156c.036.046.105.114.105.114m-18.948 1.225l-.281-.077-.242.046.01.086c.287 0 .564-.012.844-.012V38.6l-.107-.08-.224.226zM363.1 49.739c-.084.026-.184.047-.23.071-.086.042-.383.217-.43.298-.053.083.047.284.033.337-.033.063-.068.152-.1.199-.025.029-.121.08-.121.08s.045 0-.049.098c-.084.09-.105.076-.111.141-.014.067-.152.242-.152.242s0 .07-.053.109c-.049.042-.051.139-.131.17a.365.365 0 0 1-.197.025l-.084-.008c1.129 1.6 2.627 2.867 4.354 3.633.283-.149.531-.149.789-.149.137 0 .291-.036.41-.065-1.061-1.136-1.91-2.924-2.457-5.109-.491-.016-.981-.045-1.471-.072m5.179-10.477l.055.184-.072.047-.113.132-.117.132h-.277l-.156.115-.129-.1-.117-.107-.1.014-.16-.049v-.115l-.088-.125.072-.242c-.746.015-1.49.041-2.221.072a22.353 22.353 0 0 0-.6 5.214c0 .842.049 1.661.127 2.45.055.075.125.188.135.258a.712.712 0 0 1-.068.287c.096.723.209 1.416.371 2.078 1.533.063 3.131.104 4.744.104V45.31l-.016-.006c-.041-.033-.117-.27-.264-.333-.143-.06-.537.167-.537.167s-.217.113-.369.123c-.158.01-.211-.015-.211-.015l-.344-.011s-.201.147-.277.147c-.078 0-.199-.095-.246-.181-.029-.095-.422-.347-.422-.347s-.205-.167-.176-.245c.02-.078-.213-.275-.234-.335 0-.06-.209-.12-.271-.213-.08-.103-.064-.153-.049-.267.021-.127-.137-.254-.137-.254l.131-.169s.041-.326.033-.476c0-.151-.064-.119-.043-.214.027-.097-.104-.165-.121-.37 0-.217.148-.355.148-.355s.109-.264.17-.328c.047-.051.211-.4.258-.424.045-.028.359-.096.416-.31.018-.066.033-.1.039-.117l-.025-.16.033-.104c.047-.092 0-.045.041-.104a.456.456 0 0 1 .223-.146c.049-.027.195-.188.195-.188l-.012-.113.109-.022.143.083.271.008.186-.088.146-.057s.127-.083.221-.115c.098-.023.289.108.547.018.246-.088.217-.024.217-.024l.227.039v-.688c-.393 0-.779 0-1.162.007l-.124.139z"/><path d="M361.4 51.937c-.021.075-.072.162-.135.167-.105.008-.266.04-.316.038-.053 0-.221-.013-.221-.013s.021.145.021.172c0 .046.063.099.035.143-.035.037-.135.067-.135.067l-.199-.074s-.049.021-.049.05c0 .043.066.16.066.16l.131.051-.037.086-.096.049.053.121-.01.114s-.145.049-.158.075c-.014.035.014.172.086.208.082.032.18.073.18.073l.047.103-.027.104s-.068.076-.068.113c0 .023-.012.07-.02.107a18.863 18.863 0 0 0 4.646 1.631c.088-.039.193-.099.299-.154-1.608-.754-3.003-1.919-4.093-3.391m6.004 2.935l.836.031.693.347.631.078v-5.4c-1.6-.009-3.16-.035-4.67-.101.555 2.208 1.438 3.986 2.51 5.045M348.381 47a6.64 6.64 0 0 1-.523-2.56c0-.946.211-1.875.594-2.747-1.744.6-2.912 1.281-3.369 1.996-.031.25-.057.496-.057.751 0 .183.008.368.033.551.433.728 1.593 1.404 3.322 2.009m22.387 2.223c-.043-.037-.031-.226-.031-.287.004-.055.01-.38.01-.484 0-.111.166-.293.166-.377a.576.576 0 0 0-.045-.303c-.055-.127.016-.16-.043-.311-.061-.162-.67-1.088-.67-1.088l-.119-.139s.102-.146.152-.213c.059-.07-.072-.137-.072-.198 0-.058.049-.141.086-.229.045-.1-.092-.197-.195-.283-.051-.029-.092-.027-.119-.012v4.311c.377 0 .744 0 1.121-.008-.079-.157-.204-.355-.241-.379m-.461-8.729l.227.084.082.186.227.06.242.106.162-.145.016-.129.082-.047.234-.072.242.129.207.076s.125.008.201.031c.076.033.25.043.295.05.053.004.115-.007.115-.007l.145-.053.186.083.178-.003.115-.07.047-.137.047-.195.068-.104c.018-.009 0-.118 0-.118l-.057-.096s.021-.081.021-.092l-.01-.1-.07.037-.102-.069-.135.138s-.152.01-.18-.006c-.045-.019-.049-.063-.086-.104-.029-.044-.176-.038-.176-.038l-.045.096-.137.005-.057-.09-.172-.017-.248-.219v-.221s-.059-.071-.059-.122c0-.042-.039-.11-.039-.11l-.123-.018-.041.047-.133.021-.107-.018v.145l.172.219-.082.104v.171l-.066.018-.107-.096-.141-.15.016-.068-.166-.124-.129-.251.01-.088h-.322c.059.031.188.156.188.156v.057l-.094-.057s-.063-.039-.094-.048c-.035-.017-.053.048-.053.048-.016.021 0 .072 0 .072a.653.653 0 0 1 .094.051v.064l-.064.021-.006.076-.064.072h-.055l-.01-.039.057-.055-.02-.013.01-.017-.057-.199-.256-.179-.033-.02h-.309v.9l.023.062-.023.023v.199c.088.076.221.178.248.189.028.008.171.008.171.008m2.806-.384l.068-.013-.059.061-.01.037-.066.086-.078-.009-.09-.075.235-.087m-1.47-.051l.285.052.051.04h.043v.041h-.193l-.186-.081v-.052zm-1.155 15.265c.197-.156 1.121-.461 1.121-.461s.143.025.338.066c1.098-1.061 2.002-2.856 2.563-5.096-.137.006-.271.008-.41.013-.008.072.021.072-.023.134-.049.074-.1.061-.182.092-.082.03-.125.209-.125.209s.047.229.033.295c-.01.068-.043.148-.146.251-.102.099-.381.417-.521.583-.15.162-.346.234-.625.247-.279.015-.523.226-.523.226l-.18-.322s-.008-.179-.021-.238c0-.074-.225-.307-.27-.456-.039-.142-.279-.414-.289-.457a1.547 1.547 0 0 1-.055-.376c0-.033-.021-.069-.043-.114-.414 0-.826 0-1.242.006v5.446c.133.024.446.071.6-.048m.537-.918l.117.232-.494.225-.121-.303.498-.154zm-.728-15.849s-.201-.188-.227-.246c-.027-.057-.105.017-.133.051-.031.021-.025.126-.025.126.01.038.111.104.188.16.082.067.047.038.086.09.021.017.041.042.045.063h.389l-.316-.229m-6.382 9.523c-.025.011-.055.144-.055.165 0 0-.02.326-.02.368 0 .045-.158.646-.229.815.283.015.576.027.875.043a19.106 19.106 0 0 1-.316-1.684c-.061.061-.109.106-.127.137-.011.044-.089.145-.128.156m11.019-14.017l.129.096-.037.014c.48.314.945.662 1.377 1.051l.012-.043s.035-.387.027-.524c-.006-.141.174-.095.4-.141.137-.028.404-.104.67-.144a19.836 19.836 0 0 0-4.625-1.241c.688.239 1.354.558 1.969.933h.078zm-4.193.531l.842.021s.053.128.15.136c.105 0 1.025.33 1.025.33l.145.045c-.854-1.322-1.893-2.137-3.023-2.215v1.886c.063-.04.096-.038.23-.054.186-.029.631-.149.631-.149m-.437 2.311l.266-.008.215-.038.033-.126.018-.15.104-.135s.09.006.059-.009c-.029-.02-.004-.198-.004-.198h.627c.076 0 .301-.164.4-.179.107-.028-.049-.194-.049-.194l-.326.119-.58.111-.252-.111-.029-.166s-.115-.167.033-.23c.16-.064.248-.259.248-.259l-.264-.121-.184.077.09.129-.154.1-.25.185-.008.239.287.184-.23.248-.295.268-.178-.025v.295l.119.047.304-.053zm3.009-1.694l.313-.052s.588-.015.939-.047c.359-.037.199-.188.199-.188l.666.034-.008-.136a12.357 12.357 0 0 0-.828-.549l-.029.011-.324.341.156.197-.195.044-.393-.315.398-.428.107-.01a9.526 9.526 0 0 0-3.041-1.079c.747.444 1.441 1.193 2.04 2.177m-9.24.36v-.401c0-.089.123-.235.123-.235s.07-.21.129-.231c.043-.013-.027-.077-.066-.115-.82.56-1.559 1.233-2.197 2.005-.016.06-.023.149-.07.18-.063.058.191.141.223.141a.556.556 0 0 1 .127.101l-.26.088.061.009.199-.008.162.072.061.055-.053.123-.059.051-.32.127s-.271.146-.303.15a2.117 2.117 0 0 0-.172.064l-.453-.009c-.127.21-.262.436-.387.659l.313-.015.242-.116.082.068-.234.178-.354.047-.203.135c-.078.15-.15.305-.234.467a90.187 90.187 0 0 1 4.176-.264c.393-1.528.945-2.857 1.605-3.896-.15.021-.273.032-.273.032l-.703.43-.41.439-.213-.072-.342-.051-.197-.208zm-1.533 2.485s-.023.104-.068.132c-.063.026-.34.026-.34.026l-.086-.065-.365.006-.014-.111.277-.171.188-.248.229-.132.037.217-.16.082.215-.03s.111.03.111.069c-.001.022-.024.225-.024.225m27.713 10.441l.008.025c.041.094.207.313.277.416.072.096.143.029.082.22-.047.193.031.234-.186.397-.23.178-.666.711-.818.907-.145.196-.174.275-.299.294-.123.022-.355.098-.441.124a3.13 3.13 0 0 1-.344.034c-.092.014-.152.064-.285.023-.111-.027-.148-.041-.17-.096-2.496 2.088-6.178 3.722-10.521 4.631 3.621-.576 6.943-1.546 9.711-2.871 4.023-1.924 6.461-4.377 7.025-7.008-.648.648-1.82 1.264-3.404 1.805a8.133 8.133 0 0 1-.635 1.099m-1.416 2.898a9.052 9.052 0 0 0-.348.299l-.164.041.115-.439.135.012.285-.056s.026.128-.023.143m2.152-9.717c.398.875.6 1.799.6 2.75a6.71 6.71 0 0 1-.518 2.557c1.717-.605 2.889-1.281 3.309-2.009.027-.181.037-.367.037-.548 0-.258-.018-.504-.057-.754-.449-.714-1.631-1.394-3.371-1.996"/><path d="M378.986 49.555c-1.324.108-2.717.201-4.148.266-.557 2.227-1.449 4.035-2.533 5.17.406.069.887.158 1.098.197 2.441-1.033 4.433-3.061 5.583-5.633m-18.703-10.037a12.335 12.335 0 0 0-.994 4.723h.035c.057-.021.268-.06.268-.06s.086.047.209.092a.469.469 0 0 1 .188.094v.074l.135.032s.027.059.129.1c.096.031.18.133.18.16 0 .023.027.059.027.059s.033-.039.115.041c.072.072.076.138.178.119.082-.012.215-.066.334-.027.119.035.371.14.422.178a.558.558 0 0 1 .162.197c.01.036.08.145.08.145l.102.211s0 .092-.008.131c-.008.036.059.117.096.13.045.013.184.04.184.04l.096.116s.291-.022.316.007c.037.037.342.154.342.187 0 .028.094.058.145.049.039-.008.275.124.324.116.045-.004.119-.043.217-.014.098.038.148.047.23.124.055.038.16.115.246.169a26.26 26.26 0 0 1-.102-2.269c0-1.872.215-3.63.586-5.205-1.461.068-2.89.167-4.242.281"/><path d="M384.424 48.912a71.141 71.141 0 0 1-5.063.605c-1.115 2.577-3.047 4.643-5.422 5.781.182.033.395.072.605.115 4.46-1.02 8.069-3.417 9.88-6.501"/><path d="M388.049 50.393s-.145.06-.197.094c-.063.021-.178.066-.195.029-.023-.027 0-.209-.135-.281-.139-.065-.451-.043-.494-.043-.037 0-.283.057-.434.086-.158.033-.139-.02-.311.115-.176.141-.107.152-.244.184-.143.009-.201-.034-.332.004-.139.034-.178.064-.32.1-.154.048-.32.147-.375.079-.047-.06-.145-.141-.145-.141s.303-.21.295-.335c0-.117-.004-.586-.02-.695-.016-.119-.041-.082-.027-.213.02-.133.148-.47.188-.525a.713.713 0 0 1 .172-.113c-.211.037-.432.078-.648.107-1.723 3.11-5.213 5.574-9.551 6.718l.008.004c5.365-.767 9.916-2.612 12.766-5.077v-.097m-7.568-5.514l-.063-.041-.029-.064a13.157 13.157 0 0 1-.887 4.399 82.753 82.753 0 0 0 5.131-.646 9.602 9.602 0 0 0 .654-1.596l-.262-.073-.367.01-.283-.092.008-.052-.146-.061-.004-.086.199-.021c.041 0 .1.039.1.039s.162.076.223.076a.323.323 0 0 1 .127.02l.082-.083.271.085.111.037c.061-.197.107-.398.145-.594l-.193-.015-.121.038-.076-.051-.217-.021-.043-.234-.131-.135-.021-.182.094-.153.207.067.104-.181.232-.093.148-.195.162-.059.014-.048c.012-.147.027-.294.027-.436 0-.757-.104-1.484-.291-2.199a.882.882 0 0 1-.268.135c-.121.032-.449.142-.449.142l-.137.051v.143l-.092.002-.07-.184s-.141-.055-.301.039c-.156.098-.193.361-.193.361l.137.133s.063.072.141.124c.076.051.27.22.27.22s.131.189.123.275c-.014.089 0 .342 0 .342l-.209.123-.268.268-.064-.003-.023-.141.041-.085-.174-.031s-.145-.076-.152-.117c-.004-.039-.197-.193-.197-.193l-.084-.004-.096-.021-.008-.111-.1.004.012.203-.078.289.021.138.057-.011.068.081s.113.181.119.204l.088.063s.074.027.152.083c.072.066.152.19.191.232.039.026.045.3.055.339.016.037.104.142.104.142l-.068.029-.383-.232s-.186-.339-.205-.433c-.01-.086-.254-.363-.309-.397-.07-.029.02-.347.004-.488-.004-.147-.189-.401-.193-.493-.008-.096-.193-.324-.193-.324s.014.039-.014.107c-.021.07-.166.141-.166.141l-.164-.043s.018-.297-.021-.315c-.049-.019-.145-.239-.27-.286-.113-.049-.176-.242-.176-.292-.01-.062-.182-.108-.182-.108l-.053.07-.176.043h-.121l-.223.078.018.113s-.018.068-.08.098c-.061.037-.256.242-.256.242a.772.772 0 0 0-.223.249c-.008.047-.17.14-.17.14l-.029.016c.029.297.041.604.041.909.021.015.229.247.244.272a.76.76 0 0 1 .02.146l-.02.08-.153.083zm4.034-1.855l-.145-.038c-.047-.012-.033-.103-.033-.103l.078-.124h.156l.076.018-.043.184-.089.063zm-1.83 1.865l.1.051.199.01.072.127.236.158.184.123.191.165.156.092.109.056-.045.119.061.032.123.13.176.096-.025.441-.152.018s-.258-.254-.354-.281c-.094-.039-.166-.137-.174-.197-.014-.051-.137-.164-.137-.164l-.152-.141s-.064-.236-.078-.271a1.07 1.07 0 0 0-.154-.116l-.166-.109s-.242-.29-.26-.321c-.004-.028.09-.018.09-.018m5.332-4.584l.059.209c.836.196 1.6.401 2.297.625-.814-1.461-2.154-2.799-3.902-3.943l-.051-.016-.1.029s-.037.01-.145.012c-.105.006-.279-.041-.439-.05-.162-.013-.162.024-.162.024l-.148.368-.135.196.053.017.201.038.084.111.154.002.02-.07s.287.119.348.146c.066.03.189.097.189.097s.061.074.066.104c.014.026.102.18.143.229.045.047.184.316.184.316l-.023.091s.025.119.035.146c.01.02-.047.111-.076.177-.018.074-.074.211-.074.211l-.162.135-.139-.028-.08-.063s-.047.037-.047.084c0 .059-.154.129-.154.129l.107.13-.133.117-.076.007.066.121s.168.072.246.128c.445.081.873.163 1.275.259l.158-.046.061-.274-.107-.137-.016-.162.113.019.078.086.213.155-.078.176.097.095zm-.832-1.376l-.162-.214-.139-.137-.176-.209-.273-.238-.036-.111.385.275.363.252.029.201.176.234-.08.053-.087-.106zm.73.571l-.064.171-.188-.073-.096.02.031.086-.068.018-.17-.135s-.008-.1.07-.107c.082 0 .016-.084.016-.084l-.143-.184v-.05l.359.19.309.051.061.111-.117-.014zm-12.543-1.092l-.082-.034-.068.019-.15-.027-.119.023-.109.063-.123.102-.018.012c.027.115.068.225.092.343.137.005.273.009.402.021l-.125-.106-.004-.092.088.057.082-.039-.074-.043.059-.066.244.03.02-.044-.105-.053-.01-.166zm10.32 1.623v-.008c.016-.061-.074-.123-.074-.123s-.18-.018-.254-.018c-.039.006-.102.039-.148.061.162.031.324.052.476.088m-29.517-4.463l.389-.025.27-.035.164.023-.066.078c0 .023.02.094.043.078.035-.008.143-.107.143-.107v-.09l.393-.082.305-.021h.037c0-.023 0-.047-.016-.069 0-.078-.248.005-.248.005s-.75.111-.807.091c-.049-.022-.158-.05-.133-.109.049-.064.244-.092.293-.101 0 0-.008-.009-.037-.022-.197.082-.383.159-.574.236h.113l-.016.074-.253.076zm28.801 4.678l-.038-.004.008.022zm-5.897-5.775c.289.049.59.159.363.211-.221.047.27.229.27.229l.74.158s.588-.075.809-.054c.227.021.674.256.674.256l.729.144.377.025.031-.039c-2.275-.973-4.939-1.689-7.834-2.107 1.117.303 2.174.674 3.164 1.135.242.007.495.007.677.042m-23.754 6.783c-.076-.018-.277-.025-.277-.025s-.236.063-.432.089c-.113.007-.221.099-.316.196-.123.338-.213.683-.305 1.033a.535.535 0 0 0 .553.371c.316-.034.563-.162.563-.207 0-.053.168-.197.168-.197l.34-.037.158-.007s.043.065 0 .162c-.057.101-.242.286-.242.286s-.104.109-.123.188c-.031.081-.133.15-.17.223-.049.059.266.043.266.043l.469-.035s.266.047.266.096c0 .048-.121.441-.121.584 0 .15.178.293.301.351 0 0 .053.077.184.028.119-.047.326-.07.326-.07l.211.065.127.171.045-.133.129-.074s.074-.058.074-.083c0-.03-.063-.092.045-.151.107-.053-.016-.045.107-.053.113-.005.131-.022.293-.084.158-.074.197-.085.197-.085l.045.074-.086.112v.082c0 .037-.055.123-.016.139.027.012.154-.009.154-.009l-.068-.157.016-.055.346-.102.193.084s-.023.072.018.08c.033.008.02.008.213.008.006-.398.027-.791.07-1.18h-.01l.01-.072h.016c.135-1.176.426-2.299.859-3.346a46.96 46.96 0 0 0-1.35.141s-.025.053-.047.067a4.202 4.202 0 0 0-.236.218l.006.149s-.438.329-.494.347a2.016 2.016 0 0 0-.355.161c-.045.03-.236.198-.295.253-.061.076-.08.368-.096.425-.008.048.07.209.07.243s.049.082 0 .149a1.022 1.022 0 0 1-.182.162l-.088-.032s-.051-.197-.072-.245c-.018-.038-.061-.114-.061-.138 0-.028.012-.152.012-.152l-.035-.088s-.104-.098-.176-.051c-.078.059-.166.063-.166.063s-.158-.152-.299-.145c-.15.008-.443-.115-.443.014 0 .131.225.111 0 .131-.222.025-.222.032-.289.025m2.168 1.773h-.219l-.063-.086.033-.039.262.072-.013.053zm.635-.271l-.047-.037.037-.061.219.053.199-.043s.125.097.158.109c.033.021.178.062.178.062l.027.079-.205-.03-.158.054-.053-.023-.156.149-.076-.093h-.416v-.057l.191-.03.123-.067-.021-.065zm-1.582-.568l.297.018.154.013.133.064.219.094.189.081.131.061.203.035.012.07-.086.047-.174.013-.268.013-.088-.004.158-.076-.016-.029-.072-.016-.133-.053-.035-.118-.1.015-.211-.051-.154-.034-.098-.034-.156.074-.203.054-.053-.023.351-.214zm30.365-5.063c.266.176.52.361.762.558-.031-.032-.049-.056-.049-.056l-.02-.105s.102.016.133-.055c.023-.059-.006-.112-.006-.17 0-.04-.004-.117-.004-.117l.09-.055-.02-.069-.125-.096-.018-.079-.125.029.053.059-.039.033-.098.104s-.104-.063-.148-.097c-.025-.049-.068-.06-.271-.063-.199-.01-.105.141-.105.141l-.006.025"/><path d="M378.643 42.241s-.137.039-.164 0c-.023-.036-.232-.126-.232-.126l-.213-.26-.156.002s-.441.063-.496.041a7.975 7.975 0 0 0-.521-.103c-.178-.028-.152-.086-.178-.133-.016-.049-.043-.106-.137-.106-.104 0-.178.088-.23.086-.045-.016-.268-.107-.311-.116a.649.649 0 0 1-.236-.145c-.035-.058-.17-.331-.244-.331-.08 0-.199-.008-.244.021-.041.037-.012.106.045.189.057.078.162.219.219.287.055.059.098.1.098.176 0 .071.072.131.072.131l.066.025-.02-.125.057-.046.049.073.045.213s.068.045.094.043a.499.499 0 0 1 .146 0c.064 0 .129-.007.164-.053.037-.061.246-.28.246-.28s0 .081.025.196c.016.115.221.184.268.203.045.021.07.01.107.035.049.021.08.096.125.133.023.053.066.053.066.053s-.029.131-.15.279c-.119.154-.09.257-.09.257s-.088.025-.117.067c-.018.039.012.077-.068.095-.078.015-.107.094-.18.115-.072.034-.137.043-.283.098-.152.061-.078.176-.078.176-.182.042-.488.188-.727.294.004.143.004.279.004.416a.201.201 0 0 1 .113-.016c.074.026.064-.016.137-.023a.556.556 0 0 1 .104 0l.207-.112.088-.009s.035.24-.041.378c-.066.134-.082.486-.18.648-.1.155-.25.324-.363.454-.021.021-.051.051-.084.088a22.124 22.124 0 0 1-.527 3.957 98.402 98.402 0 0 0 4.221-.282c.594-1.435.926-3.024.934-4.692l-.061.033s-.135-.119-.191-.238c-.057-.115-.137-.201-.285-.492-.158-.297-.236-.419-.285-.545l-.182-.553s.031-.092-.006-.161c-.023-.083-.016-.093-.016-.093l-.053-.059-.035.111s-.145.088-.201.074c-.063-.021-.25-.237-.25-.237s.051-.017.094-.047c.041-.025.041-.064.041-.064m6.326-2.529l-.068.177c.068.012.139.029.207.037l-.025-.043.021-.135-.135-.036zm-.324-4.196c.449.038.264.025.787.188.203.053.668.141 1.162.227-2.566-1.131-5.637-2.01-9.037-2.553 2.324.488 4.463 1.186 6.342 2.055.205.032.486.059.746.083"/><path d="M374.588 49.506c.262-1.125.441-2.344.516-3.643-.074.07-.137.152-.195.215-.205.244-.402.876-.402.876l.102.126s.055.13.043.201c-.016.064.004.27.004.27s.109.094.125.175c.025.084-.008.084.016.265.021.184.01.229.01.401.012.168-.34.427-.486.472-.135.049-.115.134-.18.211-.072.068-.102.189-.102.189s.053.086.084.254c.145-.004.307-.006.465-.012m-14.201-15.32c.105-.086-.123-.041-.123-.041l-.395.148-.068-.078c-.703.188-1.385.413-2.047.648.049.017.082.031.082.031s.15-.092.238-.123c.086-.032.281-.032.281-.032l-.205.2.131.081-.145.378.145.004s.242-.043.256-.004c.021.036-.014-.103-.014-.103l.311-.05.164.03.18-.141-.08-.034-.133-.051.242-.145s.188-.176.213-.167c.033 0 .209-.187.209-.187s.246-.053.279-.044c.033 0 .033.081.033.081l-.303.182-.109.164-.094.085.131.142s.082-.066.105-.066c0 0 .053-.006.086-.006.131-.075.262-.141.387-.21-.369.022-.043-.132-.043-.132l.25-.173.342-.184.557-.054.273-.121-.932.085c.001.003-.308-.029-.204-.113m-1.469.638l-.197-.184.432-.137.158.049-.393.272zm-1.463-10.095a.118.118 0 0 0-.061.161.13.13 0 0 0 .168.064c.059-.036.221-.199.238-.265.001.001-.29.011-.345.04"/><path d="M399.482 2.334c-.047-.031-.121-.055-.252 0-.252.114-1.201.847-1.506 1.08.014-.039.027-.074.051-.134l.053-.116c.232-.464.84-1.71.84-2.544 0-.185-.029-.337-.094-.467-.01-.031-.033-.116-.135-.144-.113-.035-.254.032-.434.208-.363.365-2.488 2.305-2.512 2.324a.3.3 0 0 1-.063.048v-.02c0-.028 0-.063.008-.13l.113-.47c.092-.333.193-.7.193-.997a.682.682 0 0 0-.08-.363c-.008-.05-.049-.126-.121-.13-.113-.032-.238.093-.314.193-.223.3-3.023 3.238-3.527 3.65-.059.041-.09.065-.09.065-.012-.101.1-.359.273-.654.092-.173.672-1.513.672-2.129a.396.396 0 0 0-.053-.224.183.183 0 0 0-.176-.103c-.385.013-1.18.894-3.113 3.063 0 0-1.518 1.708-1.584 1.772v-.033c0-.038.006-.102.006-.177 0-.355-.055-1.021-.268-1.35-.113-.16-.219-.23-.344-.224-.182.004-.359.222-.6.717-.287.595-2.412 2.818-4.766 4.686l-.078.054c-2.189 1.736-3.639 2.888-5.332 5.387-1.299 1.922-3.611 2.956-5.291 3.711-.49.219-.965.424-1.334.631-.158-.012-1.758-.172-3.563-.119-.104-.714-.602-2.807-2.969-4.292-2.42-1.508-5.924-3.763-8.402-5.943-1.525-1.345-2.541-2.611-3.146-3.365-.383-.475-.521-.644-.627-.677-.16-.058-.254 0-.307.046-.045.053-.092.13-.092.326 0 .205.055.538.234 1.082l.004.025-.1-.04c-.352-.188-1.195-.63-2.176-2.015-.975-1.38-1.74-3.426-1.74-3.426-.027-.085-.078-.157-.15-.161-.109-.004-.172.133-.223.245-.082.235-.156.59-.156 1.123 0 .495.066 1.153.262 2.008h-.012c-.166-.094-1.477-1.361-2.779-3.554-.037-.053-.209-.293-.389-.228a.225.225 0 0 0-.125.128.652.652 0 0 0-.037.237c0 .53.373 1.573 1.09 3.015a26.108 26.108 0 0 1-2.33-2.591c-.041-.06-.27-.386-.486-.397a.234.234 0 0 0-.186.087c-.035.047-.057.134-.057.263 0 .455.246 1.427.848 2.689a36.834 36.834 0 0 1-1.33-1.004c-.02-.018-.188-.133-.342-.063-.098.045-.148.18-.148.368 0 .418.35 1.125.477 1.392-.045-.021-.15-.056-.15-.056-.164-.083-.385-.179-.561-.179a.181.181 0 0 0-.168.094.31.31 0 0 0-.018.131c0 .254.207.666.361.9.225.336 1.158 1.2 1.496 1.511-.338-.101-1.018-.295-1.053-.309-.023-.002-.273-.057-.393.067a.217.217 0 0 0-.057.157c0 .029 0 .065.01.11.1.353 1.238 1.171 3.385 2.419-.371-.034-.568-.009-.643.096 0 0-.039.055-.039.099 0 .034.01.062.021.099.146.319 1.393.98 2.488 1.343-.031.004-.068.004-.117.004-.254.007-.426.012-.494.099a.132.132 0 0 0-.025.085v.038c.063.188.133.455 2.527 1.382-.316-.013-.535 0-.607.1 0 0-.021.053-.021.097 0 .022.004.046.018.067.119.289 1.295.97 3.494 1.649-.176.039-.336.083-.389.16l-.021.067.004.033c.16.462 2.34 1.247 4.352 1.887-.17.011-.32.044-.383.113-.035.023-.047.066-.047.104l.012.019c.021.217.594.863 5.205 2.091.043.009.08.015.109.029a.22.22 0 0 1-.078.031c-.09.047-.215.098-.215.226v.012c0 .119.137.257.455.447.672.414 1.789.807 2.127.93a52.046 52.046 0 0 0-4.125 2.409c-.018.012-.043.044-.043.07v.043c0 .145-.039.661-.609.964-.307.168-.828.542-.926 1.19a1.054 1.054 0 0 0-.018.209c0 .561.324 1.176.969 1.834.139.11.236.142.297.089.084-.085.094-.176.039-.293-.021-.031-.104-.304-.006-.507.049-.115.143-.187.297-.226.416-.107.773-.023 1.029.049l.201.046c.24.034.777.038 1.205-.192.324-.183 1.42-.125 2.004-.098l.168.007.225.013a2.515 2.515 0 0 1-.488.519l-.32.242c-.34.242-.527.389-.801.719-.064.014-1.846.301-1.846.301s-.051.022-.061.047c0 0-.477.871-1.113 1.463-.637.604-1.42.864-1.42.864-.025.006-.033.021-.033.021-.021.032-.262.424-.303 1.236-.004.082-.01.161-.01.244 0 .039.006.072.006.102l.008.048s.113.179.277.259c.051.027.285.181.525.334 0 0 .188.07.408.121h.016l.031.02.016.005.061.021c-1.939.538-3.74 1.195-5.369 1.972-5.135 2.464-7.961 5.817-7.961 9.471 0 3.644 2.826 6.997 7.961 9.46 4.875 2.332 11.326 3.621 18.186 3.621 6.848 0 13.305-1.289 18.172-3.621 5.141-2.463 7.969-5.816 7.969-9.46 0-3.653-2.828-7.007-7.969-9.471-3.041-1.46-6.711-2.505-10.711-3.089h.004s.031-.006.043-.02a.562.562 0 0 0 .332-.405c.26.155.914.491 1.494.353.713-.176.924-.826.955-.907.016-.041.066-.098.104-.096l.104.035c.223.082.619.23 1 .042.291-.146.434-.384.537-.555.063-.106.115-.189.17-.222.059-.039.166-.055.264-.075.229-.036.516-.081.678-.292 0 0 .16-.234.16-.443 0-.082.004-.286.121-.329 0 0 1.066-.39 1.285-1.15 0 0 .072-.198-.027-.388-.078-.175-.264-.292-.533-.347l-8.305-2.218s-.297-.134-.541-.466c.705.015 3.441.026 5.186-.532.045-.022.174-.102.174-.222a.196.196 0 0 0-.111-.185c-.107-.061-.207-.108-.275-.146l.055-.002c.314-.069 2.676-.606 3.211-.858.238-.112.357-.236.357-.353v-.03c-.027-.152-.203-.228-.313-.228-.084 0-.248-.025-.379-.047.08-.019.178-.039.178-.039.672-.151 2.459-.54 3.531-1.009.064-.034.234-.152.234-.292v-.009c0-.047-.023-.115-.121-.167-.215-.118-1.129-.156-1.264-.165.021-.015.045-.023.088-.051.064-.03.309-.12.619-.217 1.18-.398 3.379-1.138 3.982-1.957a.416.416 0 0 0 .078-.217.183.183 0 0 0-.17-.17 8.53 8.53 0 0 0-.799-.005l.047-.035.182-.092c.721-.362 2.91-1.481 4.045-2.455.035-.043.23-.25.23-.414l-.008-.022-.078-.137s-.139-.139-.459-.1l-.055.01c0-.022.047-.049.1-.085l.1-.049c1.447-.75 2.451-1.445 2.967-2.06.016-.03.08-.128.08-.22 0-.037-.004-.063-.004-.063-.027-.075-.09-.139-.232-.144-.273-.018-.953.083-1.082.11v-.002s.021-.039.121-.119l.188-.122c.506-.341 1.684-1.132 2.275-2.108a.074.074 0 0 0 .018-.026c0-.057-.012-.25-.113-.337-.045-.03-.107-.048-.172-.03l-.627.159s.021-.033.051-.057c.023-.023 1.947-2.001 2.344-3.117.125-.355.178-.563.178-.691 0-.082-.021-.125-.068-.162-.094-.081-.236.005-.389.104l-.064.034-1.365.783h-.018c.018-.021.041-.073.111-.159l.244-.303c.557-.652 1.588-1.854 1.74-2.853v-.006s.01-.049.01-.097c.001-.096-.013-.233-.111-.298m-10.384 4.705c1.607-1.111 3.6-2.646 5.355-4.476l.008.006c0 .054-.033.144-.127.281-.361.508-2.381 2.535-5.313 4.528.028-.129.053-.248.077-.339m7.59-4.64c.025-.02.061-.029.086-.02a.088.088 0 0 1 .059.069v.029c0 .086-.041.317-.414.749-.385.434-4.061 3.904-8.385 6.305.189-.269.359-.553.492-.823 2.132-1.271 4.972-3.27 8.162-6.309m-8.235 5.068c-.006.044-.131.297-.699.729-.602.369-1.227.729-1.875 1.075.07-.113.141-.228.211-.348.133-.076 1.072-.59 2.363-1.456m-3.642 8.441a30.2 30.2 0 0 1-3.582 1.077.08.08 0 0 1-.088-.032c-.016-.025-.021-.068-.004-.093l.525-.875c.016-.029.031-.037.053-.04a44.262 44.262 0 0 0 3.889-1.11s.031.033.031.089l-.014.04a.563.563 0 0 1-.033.118 1.64 1.64 0 0 1-.777.826m0 .925v.008a1.973 1.973 0 0 1-.055.104c-.133.184-.469.494-1.104.727-1.186.41-2.459.787-3.721 1.068a.094.094 0 0 1-.096-.039c-.018-.029-.008-.068.018-.099l.525-.646s.033-.025.053-.032c.531-.111 2.129-.45 4.352-1.18 0 .002.047.026.028.089m.589-2.812c-1.023.376-2.035.692-3.021.905-.039.01-.063-.002-.078-.024-.02-.025-.029-.059-.012-.091l.416-.87s.035-.04.059-.049c.602-.137 1.742-.437 3.248-.973a.071.071 0 0 1 .059.074v.018c-.01.065-.02.139-.031.192-.063.224-.227.541-.64.818m.534-2.006c-.867.343-1.744.626-2.598.837a.111.111 0 0 1-.082-.028c-.018-.026-.029-.063-.018-.091l.252-.604c.006-.014.025-.039.055-.041.873-.223 1.74-.501 2.598-.838 0 0 .039.02.053.081v.151c-.018.155-.083.384-.26.533m-1.329-.907c-.035.006-.084 0-.1-.032-.023-.031-.023-.082.008-.103l.344-.407.021-.011a25.072 25.072 0 0 0 2.734-1.322c-.27.395-.645.771-1.094 1.084a24.87 24.87 0 0 1-1.913.791m-33-4.141c.09.092.252.383.252.383.664 1.081 2.264 3.042 4.875 4.705 2.613 1.666 3.084 1.759 5.678 3.731 2.596 1.977 2.4 3.285 2.412 3.458.008.168-.17.216-.17.216-.559.106-1.711.523-1.922.634-.201.107-.127-.121-.127-.121.307-.497.367-1.09.367-1.09.051-2.471-3.969-3.814-7.523-6.758-3.566-2.933-3.697-4.258-3.875-4.706-.187-.452-.064-.547.033-.452m.44 5.195c.836.15 1.678.283 2.521.389l.055.018.023.01.719.443c.021.018.031.038.021.079-.01.021-.031.043-.057.032l-.406-.044a30.67 30.67 0 0 1-1.439-.203c-.773-.194-1.41-.498-1.441-.611-.02-.076-.008-.103-.008-.103m-1.045-1.033c-.043-.076-.055-.121-.064-.147l.781.177 1.434.278.029.003.74.444a.06.06 0 0 1 .027.071c-.021.033-.043.049-.068.045a72.15 72.15 0 0 1-1.264-.25c-.912-.269-1.533-.505-1.615-.621m2.735 2.537c.611.102 1.217.195 1.834.28l1.184.139.023.004.73.425c.021.021.035.043.023.076-.008.028-.035.047-.063.042l-1.549-.178c-.256-.031-.521-.08-.773-.116-1.074-.212-1.379-.539-1.41-.598-.025-.062.001-.074.001-.074m1.9 1.393c.236.035.459.071.684.096.66.079 1.336.146 2.021.203l.027.011.279.19c.023.008.039.042.023.074-.006.02-.035.048-.057.04h-.043c-.266-.038-.662-.053-1.092-.088-.945-.074-1.746-.323-1.816-.412-.066-.066-.037-.1-.037-.1m-4.354-5.062l.088.019.129.04h.02l.709.504a.062.062 0 0 1 .029.075.084.084 0 0 1-.076.042l-.688-.177c-.141-.031-.268-.076-.404-.118-.773-.277-.941-.474-1.029-.604-.012-.03-.029-.048-.037-.078-.008-.026-.008-.033 0-.037a54.2 54.2 0 0 0 1.259.334m-.621-.865c-.012.029-.043.045-.068.029a24.055 24.055 0 0 1-1.416-.431 7.048 7.048 0 0 1-1.16-.708c-.051-.051-.051-.076-.051-.076.629.224 1.318.46 2.074.687l.609.417c.023.017.029.052.012.082m-3.672-5.653c1.32 2.433 2.824 3.26 2.914 3.313.318.196.566.792.658 1.034 0 0 .02.042.027.08h-.008c-.164-.062-2.309-1.415-2.961-2.646-.496-.933-.617-1.544-.641-1.798l.011.017m-.27 2.767c.586.322 1.217.636 1.891.936l.533.472c.025.02.025.061.012.082-.021.028-.057.041-.08.028l-.541-.232.014.007c-.02-.007-.088-.043-.361-.164a27.839 27.839 0 0 1-.725-.358c-.396-.255-.602-.396-.693-.506a.957.957 0 0 1-.049-.126.347.347 0 0 1-.001-.139m-4.377-3.488c.029-.018.068-.01.082.023.135.202.537.75 1.4 1.503l.086.079c.291.243.611.485.943.734.373.255.756.509 1.164.75.039.127.074.271.127.414a17.033 17.033 0 0 1-1.521-1.052 13.158 13.158 0 0 1-1.482-1.348l-.441-.496-.145-.197a1.742 1.742 0 0 1-.232-.313v-.011l-.014-.004-.006-.03c0-.023.02-.045.039-.052m-.4 2.028h-.008l-.016-.002v-.03c0-.026.01-.055.023-.062.02-.019.064-.019.08.007.092.087.301.296.691.591.66.48 1.918 1.29 4.072 2.182.131.18.287.364.469.535-1.551-.635-3.316-1.521-4.732-2.656l-.305-.255c-.116-.109-.233-.231-.274-.31m.549 1.833l-.215-.152h.006l-.01-.009-.029-.044.014-.041c.025-.027.066-.04.09-.02.328.234 1.563 1.044 3.789 1.962.545.222 1.109.443 1.688.64.414.147.85.299 1.293.436a.67.67 0 0 1 .305.284c.012.018.021.047.021.047l.027.045c.02.096-.016.134-.016.134a38.624 38.624 0 0 1-1.945-.669c-1.971-.751-3.563-1.552-4.721-2.388l-.297-.225zm.916 1.835s-.219-.139-.236-.154l-.006-.004-.008-.004s-.025-.03-.025-.05l.002-.035a.076.076 0 0 1 .094-.021l.391.221a24.45 24.45 0 0 0 2.111.952c1.232.495 2.576.935 3.977 1.299l.277.079c.074.061.258.231.287.315.02.066 0 .099 0 .099-.039.009-.139-.022-.381-.086l-.705-.202-1.242-.388-.068-.024-.445-.152-.637-.225c-1.349-.508-2.488-1.055-3.386-1.62m1.75 2.001h-.004.004l.029.019c0-.001-.014-.001-.029-.019m.338.718l.021.002h-.018m.506-.4l.014.007c-.023-.007-.119-.057-.709-.332l-.168-.085s-.029-.039-.029-.058l.002-.027c.016-.035.055-.042.078-.035a28.73 28.73 0 0 0 2.301.794c1.102.333 2.268.623 3.455.878.102.063.398.359.436.424.041.049.025.09.012.116a40.477 40.477 0 0 1-2.045-.508 24.103 24.103 0 0 1-2.004-.638 19.873 19.873 0 0 1-1.343-.536m1.977 1.533v-.002c-.021-.019-.037-.038-.037-.056v-.021c.016-.036.045-.051.078-.042.617.225 2.268.778 4.725 1.269.158.092.551.401.598.446a.113.113 0 0 1 .033.087c-.049-.017-.09-.021-.145-.038-2.004-.425-3.771-.982-5.252-1.643m2.918 1.843c-.031-.015-.039-.035-.039-.06l.004-.021c.004-.028.039-.049.07-.044a32.9 32.9 0 0 0 3.584.839c.107.047.326.192.406.25.055.032.068.081.068.1-.104-.019-.205-.034-.297-.055a29.682 29.682 0 0 1-3.796-1.009m2.59 1.617c-.037-.01-.063-.044-.045-.081.008-.029.045-.049.074-.04.703.179 1.77.419 3.086.623a.83.83 0 0 1 .201.078c.104.056.455.26.465.333a32.306 32.306 0 0 1-3.781-.913m5.297 2.158c-.42-.05-.889-.129-1.449-.223-.037-.007-.059-.04-.051-.068 0-.042.023-.064.068-.059.438.044.904.083 1.404.108h.004s.131 0 .244.065c.109.071.396.199.416.25a15.19 15.19 0 0 1-.636-.073m.691-1.019c-.867-.038-1.578-.326-1.65-.405-.061-.061-.035-.078-.035-.078.641.055 1.277.101 1.91.125h.016s.074.039.137.075c.11.08.339.31-.378.283m1.522 1.101c-.109.029-.441-.053-.613-.118-.031-.023-.061-.036-.098-.054-.1-.061-.088-.116-.088-.116l.146-.006h.525l.037.014c.033.021.156.108.16.205-.003.026-.023.058-.069.075m.209.828l-.035-.02c-.076-.044-.064-.075-.064-.075l.078-.017.297.011.023.006c.02.018.096.07.096.124 0 .018-.02.032-.045.047-.059.012-.249-.036-.35-.076m.337 8.881l1.604-1.231c.145-.112.221-.123.221-.123l1.01-.016s-1.488.863-1.939 1.07c-.453.196-.857.342-.857.342-.07.001-.039-.042-.039-.042m7.846-2.007c-.029-.122-.266-.62-1.27-.829 0 0-.051-.042.057-.091.123-.063.855-.21 1.91.153 0 0 .072.033.053-.027 0-.051-.221-.458-.686-.619 0 0-.045-.058.025-.068.066-.01 1.871-.24 1.885 2.323 0 0-.037.098-.115.02-.084-.079-.449-.628-.699-.867-.254-.243-.273.023-.254.42.029.392-.184 1.829-.336 1.574-.141-.255-.254-.772-.441-.505-.178.269-.428.835-1.361 1.424 0 0-.088.035-.08-.072.016-.122.117-.838.117-.838s0-.123-.029-.123c-.025 0-.959.808-1.994 1.296 0 0-.15.079-.113-.045.041-.111.42-1.009.42-1.009s-.852.548-2.48.608c0 0-.061 0-.061-.053s-.092-.568-.346-.768c0 0 .85-.329 1.691-.87.396-.251.775-.555 1.082-.801.68-.18 1.574-.307 2.928-.174 0 0 .134.063.097-.059m4.979 4.991l.004.036-.057.079c-.045.021-.137.028-.316-.083l-1.525-2.284c-.014-.013-.008-.041-.008-.041.041-.025.064-.021.064-.021l1.838 2.314zm-1.233-3.051c.02-.013.037-.021.063 0l3.482 3.129.008.047a.278.278 0 0 1-.152.151c-.092.06-.215.047-.359 0l-.107-.06-1.5-1.646-1.08-1.172-.354-.393c-.014-.018-.012-.039-.001-.056m-.541 2.261c-.039.015-.082 0-.088-.032l-.576-1.182c-.012-.032-.004-.066.025-.075.025-.012.064-.004.076.026l.584 1.173c.024.035.009.077-.021.09m.18-5.153c-.023.023-.064.019-.096-.007a4.45 4.45 0 0 0-1.051-.893.066.066 0 0 1-.035-.083.074.074 0 0 1 .092-.027c.012.017.613.345 1.104.915.017.028.011.069-.014.095m-.615.62c.033.065-.006.143-.07.167a.118.118 0 0 1-.162-.068c-.396-.973-1.025-1.378-1.025-1.378-.07-.043-.088-.122-.047-.182a.124.124 0 0 1 .176-.036c.026.016.7.452 1.128 1.497m-14.315 4.687c.262-.367 1.143-1.306 1.143-1.306s1.209-.127 1.895-.26c.691-.137 1.994-.32 1.994-.32l.023.124c-.023.162-.256.162-.256.162-.693.081-.891.412-.908.725-.025.306-.186.726-.186.726.006-.146-.125-.614-.496-.726-.381-.125-1.23.103-1.578.615-.348.507-.018 1.242-.018 1.242-.641-.297-.707-.708-.688-.879.021-.179.193-.505.217-.582.018-.073-.055-.053-.055-.053s-.533.469-.568.695c-.033.222.195.819.195.819s-.547-.367-.707-.583c-.159-.209-.007-.399-.007-.399m-.488 2.749l.031.002-.031.005v-.007m.908-.204h-.016c-.029-.052-.066-.108-.096-.16l-.301-.396-.006-.01-.016-.013s-.025-.021-.041-.056v-.008l-.014-.059c0-.023.014-.053.033-.088.074-.123.164-.209.215-.264.158.124.65.443 1.486.594a.106.106 0 0 0 .078-.028s.02-.04.02-.066v-.003s-.012-.172-.029-.287c.16.025.49.063.875.055 0 0 .078.008.113-.043 0 0 .033-.064 0-.125l-.078-.1c-.133-.146-.457-.5-.457-.841 0-.193.227-.426.504-.503a.59.59 0 0 1 .691.286c.381.65.148.937.139.943-.027.033-.027.07-.006.106.016.03.057.042.088.038 0 0 .666-.184.68-.862l-.014-.39c-.004-.343-.01-.495.219-.735 0 0 .186-.105.326.061.055.099.346.441 1.662.241h.006v.013c-.039.116-.215.344-.273.425 0 0-.057.053-.057.128v.032c.023.048.064.098.164.109.211.032 1.641.036 2.912-.561-.018.09-.088.277-.129.384a.141.141 0 0 0-.029.143c.016.034.063.074.15.074.131 0 1.395-.365 2.697-1.856l.027-.015c.029.038.154.284.238.444.043.049.131.154.225.096 0 0 .053-.021.648-.776 0 0 .029 0 .057.04.08.096.662 1.235 1.023 1.982.02.025.328.533.742.533l.262-.012c.184-.016.256-.027.426.068l.168.101c.123.093.275.187.447.259-1.4-.118-2.822-.18-4.271-.18-4.057 0-7.959.457-11.484 1.3l-.004-.018zm30.6 3.714c.256.135.492.273.725.416 3.572 2.165 5.5 4.84 5.5 7.677 0 3.321-2.66 6.426-7.506 8.747-4.771 2.283-11.104 3.536-17.828 3.536-6.738 0-13.076-1.253-17.836-3.536-4.838-2.321-7.512-5.426-7.512-8.747 0-2.542 1.561-4.962 4.461-6.997.891-.62 1.91-1.213 3.051-1.756.115-.055.234-.112.359-.166 4.721-2.178 10.904-3.374 17.477-3.374 6.725 0 13.057 1.259 17.828 3.54.445.211.875.425 1.281.66m-14.121-4.76c.291-.076.443-.254.443-.254s.033-.021.098.014l.199.128.32.222c-.353-.034-.711-.075-1.06-.11m4.359-.73c-.055.063-.221.182-.574-.038l-4.939-3.647-.125-.137c-.018-.011-.021-.033-.014-.049l.055-.015.256.135 5.055 3.19c.023.03.273.209.326.303l.004.009.014.09a.247.247 0 0 1-.058.159m1.775-1.004l-.033.075a.473.473 0 0 1-.391.194h-.035l-.111-.036-.113-.043-3.838-2.199-2.234-1.304-.076-.064s-.027-.03-.016-.05c0 0 .027-.029.053-.022l.158.05 6.65 3.258.025.053-.039.088m1.282-.755a.443.443 0 0 1-.404.23l-.045-.004h-.025l-7.441-3.461-.025-.035.039-.056 6.385 2.44 1.574.613c.02.01.033.021.033.021a1.29 1.29 0 0 1-.091.252m.527-1.264h-.01c.074.009.162.094.193.178a.168.168 0 0 1-.031.168c-.111.128-.318.081-.318.081l-7.682-2.858-.143-.078a.038.038 0 0 1-.023-.029s.031-.047.053-.042l.125.023 7.836 2.557zm-7.137-6.909c-2.063 1.469-6.209 2.019-7.059 2.008-.855-.032-1.506 1.036-2.779 1.958-1.283.927-2.594.676-2.594.676.338-.454.262-1.124.262-1.124a2.589 2.589 0 0 1-1.602 1.265c-.5.127-.762.12-1.471.11-.699-.016-1.188.268-1.541.313-.354.054-.844-.069-.844-.069.23-.127.588-.269.82-.283.232-.013.854-.182.854-.182-.75-.22-1.744.221-1.744.221-.545.215-.828.017-.828.017-.736.215-.637.796-.637.796s-.25-.399-.268-1.035c-.016-.634 1.506-1.382 1.506-1.382.824-.157 1.178.265 1.178.265.213.371.564.568.828.354.266-.208.34-.514.564-.529.229-.018.418 0 .418 0s.293-.179.293-.229c0-.051-.078-.036-.078-.036s-.404.107-1.525.161c-1.131.05-1.514-.656-1.514-.656 2.072-.653 4.115-2.628 6.322-3.085 2.199-.456 4.51-.072 4.51-.072-.613.714-.775 1.296-.775 1.296 5.074-3.346 8.199-4.342 8.199-4.342 2.141-3.85 4.482-5.583 6.301-6.775 1.805-1.182 4.035-3.977 4.225-4.339.205-.405.313-.388.313-.388-.086 1.389-1.43 2.882-2.537 3.965-1.119 1.074-2.801 2.272-2.801 2.272-.113.125-.023.175-.023.175s.346.039.402.039c.045 0 .045.101.045.101-.363.553-1.004.975-1.092 1.081-.084.11.029.132.029.132s.139.018.244.051c.1.037 0 .232 0 .232l-1.041 1.005c-.09.099-.051.141-.051.141s.49-.056.545-.042c.053.01.053.121.053.121-.203.508-.881 1.108-.959 1.196-.09.102-.063.138-.063.138s.465-.027.5-.027c.045 0 .029.058.029.058-.875 1.28-2.627 2.261-2.627 2.261s.5.228.551.268c.047.037 0 .089 0 .089-1.139.795-2.938 1.377-2.938 1.377s.398.194.43.271c.048.069-.03.182-.03.182m2.082 1.338c-.652.037-1.738.013-1.738.013-.08-.005-.139-.062-.137-.133 0-.067.064-.125.131-.122 0 0 1.084.02 1.736-.009a.123.123 0 0 1 .133.121c0 .071-.052.13-.125.13m3.67-1.956l-.029.034-.113.055a7.959 7.959 0 0 1-1.139.403c-.316.056-.637.125-.961.179-.135.015-.24.039-.336.049-.508.085-1.008.148-1.48.186-.443.045-.09-.226-.029-.273.021-.027.096-.031.096-.031.467-.041 1.836-.193 3.967-.699.042.018.097.038.024.097m-2.859-.196c-.066.011-.037-.049-.037-.049l.395-.296c.143-.109.254-.156.254-.156.549-.085 2.213-.418 4.537-1.135 0 0 .037.023.014.063l-.043.044c-.141.109-.652.354-1.432.626a38.917 38.917 0 0 1-3.688.903m8.934-1.674c-.021.016-.049.029-.068.038-.191.083-1.92.919-4.857 1.736.203-.139.412-.297.609-.454 1.219-.341 2.6-.766 4.193-1.355.043-.016.123-.033.164-.053 0 0 .013.037-.041.088m3.746-2.794c-.037.052-.359.221-.84.459-.256.137-.584.284-.955.458-.145.06-.299.127-.463.194-.902.406-2.043.868-3.336 1.337-.398.142-.809.286-1.232.433.098-.125.199-.243.281-.365.375-.125.76-.248 1.162-.388 1.379-.476 2.895-1.004 4.494-1.755.277-.137.561-.271.852-.408 0 .002.158-.116.037.035m1.806-2.245v.011l-.006.013.006-.013-.006.019-.018.021.018-.021a.413.413 0 0 0-.025.103c-.047.056-.305.212-.768.464l-1.361.71-.535.257c-.877.434-1.809.851-2.746 1.258-.641.269-1.391.568-2.201.876.115-.208.215-.414.32-.626a40.57 40.57 0 0 0 1.539-.558c1.373-.522 2.881-1.251 4.709-2.177.215-.107.842-.419.996-.434.025-.007.063.011.078.051l.002.034-.002.012m2.99-3.137c0 .276-2.854 1.909-5.412 3.184l-1.787.861c-.93.43-1.83.812-2.697 1.164.107-.298.197-.591.271-.868a48.78 48.78 0 0 0 9.361-4.454c.027-.023.1-.085.18-.051.042.014.084.059.084.164m1.223-2.932c-.098.288-5.242 4.011-10.611 6.246.049-.31.09-.606.125-.885a42.441 42.441 0 0 0 10.088-5.471c.174-.12.291-.171.367-.114.088.063.041.187.031.224m1.172-3.389c-.186.274-5.742 5.202-11.594 7.744.012-.109.012-.221.012-.323 0-.123 0-.237-.012-.336 6.1-2.523 11.361-7.268 11.42-7.32l.006-.009c.117-.082.193-.103.25-.045.066.063 0 .169-.082.289M27.348 42.422c0-3.5-2.072-3.602-3.572-3.602h-1.801v-2.26c2.844.162 5.887.327 9.352.327 3.467 0 6.51-.165 9.51-.327v2.26h-.928c-1.498 0-3.57.102-3.57 3.602v10.375c-2.947.859-9.926 2.367-15.402 2.367C8.945 55.164 0 48.065 0 35.058c0-10.05 6.207-20.106 21.146-20.106 5.217 0 10.697 1.292 15.191 2.741l-.309 10.914h-3.572c-.045-6.345-4.387-10.104-10.33-10.104-9.717 0-12.512 7.309-12.512 16.612 0 8.922 4.654 16.822 13.236 16.822 1.65 0 3.359-.32 4.496-.592v-8.923zm17.709-21.123c0-2.258-.361-3.338-4.137-3.389v-2.26c2.641.166 5.686.329 8.635.329 2.945 0 5.998-.163 8.996-.329v2.26c-4.135.051-4.494 1.13-4.494 3.389v20.639c0 6.128 3.719 8.385 9.145 8.385 7.236 0 9.67-3.813 9.67-11.448V21.299c0-2.258-.365-3.338-4.498-3.389v-2.26c1.863.166 3.924.329 6.041.329 1.764 0 3.574-.163 5.275-.329v2.26c-3.051.051-3.414 1.13-3.414 3.389v17.949c0 12.634-7.545 15.916-15.191 15.916-9.512 0-16.027-2.637-16.027-13.979V21.299zm37.16 30.908c4.447-.059 4.809-1.133 4.809-3.391V21.299c0-2.258-.361-3.338-4.496-3.389v-2.26c2.996.166 6.053.329 8.994.329 2.943 0 5.998-.163 9.926-.329v2.26c-5.064.051-5.43 1.13-5.43 3.389v28.059c0 1.609.059 2.203 3.053 2.203 6.252 0 11.732-1.184 13.129-8.441h2.527a139.929 139.929 0 0 0-2.225 11.342c-4.34-.158-9.191-.324-14.625-.324-5.785 0-11.055.166-15.662.324v-2.255zm33.496 0c4.447-.059 4.807-1.133 4.807-3.391V21.299c0-2.258-.359-3.338-4.494-3.389v-2.26c4.705.166 9.512.329 14.318.329 4.855 0 9.664-.163 14.523-.329 0 3.229.205 7.313.41 9.781h-2.586c-.305-6.664-3.92-6.873-9.301-6.873-2.32 0-3.877 0-3.877 1.666v13.601h4.447c4.133 0 5.582-.543 5.582-5.002h2.166a80.078 80.078 0 0 0-.307 6.822c0 2.583.152 5.113.307 6.828h-2.166v-1.609c-.053-3.819-1.707-4.459-5.172-4.459h-4.857v12.412c0 2.258.363 3.332 5.641 3.391v2.254c-3.42-.158-7.084-.324-9.982-.324-2.895 0-6.199.166-9.459.324v-2.255zm54.082-32.629c-.979-1.345-2.686-1.667-3.777-1.667h-.618v-2.26c2.23.166 4.441.329 6.623.329 2.221 0 4.441-.163 6.711-.329l19.125 24.674h.107V21.299c0-2.258-.361-3.338-4.959-3.389v-2.26c2.373.166 4.803.329 6.666.329 1.859 0 4.287-.163 5.582-.329v2.26c-3.518.051-3.871 1.13-3.871 3.389v33.162h-4.244l-23.832-31.073h-.1v25.429c0 2.258.365 3.332 4.963 3.391v2.254c-2.385-.158-4.807-.324-6.67-.324s-4.289.166-6.67.324v-2.254c4.605-.059 4.963-1.133 4.963-3.391V19.578zm37.682 32.629c4.605-.059 4.963-1.133 4.963-3.391V21.299c0-2.258-.357-3.338-4.5-3.389v-2.26c4.709.166 9.52.329 14.322.329 4.859 0 9.672-.163 14.529-.329 0 3.229.199 7.313.404 9.892h-2.576c-.313-6.775-3.938-6.983-9.311-6.983h-2.16c-1.35 0-1.715.482-1.715 1.607v13.01h4.137c4.139 0 5.582-1.07 5.582-5.162h2.168a70.127 70.127 0 0 0-.307 6.449c0 2.581.15 5.106.307 6.826h-2.168c0-4.459-1.443-5.531-5.582-5.531h-4.137v13.387c0 1.557.727 2.09 2.225 2.09h2.273c6.002 0 10.391-.857 11.629-7.361h2.48c-.932 3.499-1.496 7.041-2.016 10.588-5.012-.158-9.98-.324-14.988-.324-5.168 0-10.389.166-15.561.324v-2.255zm31.529-36.557c2.639.166 5.27.329 7.906.329 2.535 0 5.018-.163 7.553-.329v2.26h-1.039c-1.391.217-1.441.857-1.441 1.558 0 .591.26 1.831.621 3.066l6.246 22.033h.104l5.689-18.327-1.342-5.321c-.674-2.687-1.09-3.009-3.359-3.009h-1.193v-2.26c2.688.166 5.43.329 8.115.329 2.949 0 5.947-.163 8.895-.329v2.26h-.932c-1.811 0-2.791.485-2.791 1.451 0 .863.26 1.881.674 3.87l4.857 22.198h.102l7.287-22.682c.422-1.345.729-2.313.729-3.387 0-1.184-1.141-1.451-2.844-1.451h-1.246v-2.26c2.076.166 4.502.329 6.154.329 1.758 0 3.465-.163 5.219-.329v2.26c-2.426 0-3.514 1.827-4.393 4.461L277.93 54.78h-5.791l-5.84-22.302h-.102L258.91 54.78h-5.787l-9.873-32.62c-1.145-3.659-1.4-4.143-4.244-4.143V15.65zm78.176 11.454h-3.152c-.154-5.489-1.756-8.926-7.91-8.926-2.996 0-5.939 1.291-5.939 5.16 0 7.795 19.482 4.948 19.482 19.032 0 9.033-6.822 12.795-14.729 12.795-4.031 0-9.201-1.296-12.721-3.395.209-3.109.266-7.688.266-10.803h3.723c0 5.863 2.32 10.648 8.424 10.648 3.82 0 7.281-1.506 7.281-5.106 0-9.141-19.174-6.241-19.174-20.052 0-7.313 5.426-11.505 13.543-11.505 3.824 0 7.652.806 11.371 1.562l-.465 10.59z"/></g></svg>