<svg width="54" height="40" viewBox="0 0 54 40" fill="none" xmlns="http://www.w3.org/2000/svg">
<path d="M28.1493 0.500244C28.979 0.753763 29.8416 0.930459 30.6307 1.27507C34.0626 2.77204 36.2356 6.34436 35.7659 10.2119C35.2676 14.3143 32.2967 17.3181 28.3326 17.9141C23.6463 18.6186 19.1181 15.3218 18.3992 10.7552C17.5849 5.57612 21.1978 1.28714 25.658 0.6067C25.7612 0.591336 25.8577 0.536461 25.9576 0.500244C26.6874 0.500244 27.4184 0.500244 28.1482 0.500244H28.1493Z" fill="white"/>
<path d="M53.3442 37.7095C52.9327 38.6852 52.2105 39.0572 51.1438 39.0364C48.591 38.987 46.0361 39.0199 43.4822 39.0199H42.8292V38.3944C42.8292 35.8251 42.8226 33.2548 42.8314 30.6856C42.8402 27.9628 42.2728 25.3804 40.9909 22.9659C40.9415 22.8726 40.9042 22.7716 40.8208 22.5796C41.0952 22.6235 41.3081 22.6224 41.4969 22.6915C43.547 23.44 45.5927 23.4422 47.6439 22.6959C48.2277 22.4841 48.7897 22.5434 49.3132 22.8924C51.4719 24.329 52.7999 26.3099 53.2378 28.8748C53.2553 28.9768 53.3091 29.0734 53.3453 29.1733V37.7095H53.3442Z" fill="white"/>
<path d="M28.8079 21.5413C30.1326 21.0661 31.3277 20.6425 32.5185 20.2079C33.1627 19.973 33.774 19.9939 34.3316 20.4175C37.4715 22.8024 39.1835 25.962 39.301 29.8998C39.3877 32.7785 39.3196 35.6616 39.3207 38.5436C39.3207 38.6841 39.3207 38.8257 39.3207 38.9925H14.8182C14.8073 38.8388 14.7875 38.6819 14.7875 38.526C14.7853 35.7176 14.7447 32.908 14.7963 30.1006C14.8698 26.1135 16.5534 22.9132 19.6988 20.4702C20.2673 20.0279 20.8819 19.9544 21.5513 20.1969C22.7597 20.6337 23.9724 21.0617 25.2981 21.5348C25.2981 21.571 25.2981 21.7641 25.2981 21.9573C25.2981 24.6747 25.2916 27.392 25.3014 30.1094C25.3058 31.4681 26.456 32.334 27.6501 31.9005C28.37 31.6393 28.8057 30.9731 28.8068 30.093C28.8112 27.3942 28.809 24.6955 28.809 21.9957C28.809 21.7982 28.809 21.6017 28.809 21.5402L28.8079 21.5413Z" fill="white"/>
<path d="M13.3311 22.5465C12.4432 24.1851 11.833 25.761 11.5663 27.4413C11.4094 28.4268 11.304 29.4299 11.2898 30.4276C11.2525 33.0703 11.2766 35.7142 11.2766 38.358C11.2766 38.5555 11.2766 38.7531 11.2766 38.988C11.0845 39 10.9276 39.0198 10.7696 39.0198C8.06865 39.022 5.36773 39.0231 2.66682 39.0198C1.47056 39.0198 0.765972 38.3152 0.764875 37.1211C0.76268 34.7879 0.728658 32.4535 0.773655 30.1203C0.834016 27.0133 2.2399 24.6208 4.80143 22.8889C5.32164 22.5366 5.88794 22.4872 6.4718 22.6991C8.50435 23.4377 10.5347 23.4399 12.5694 22.7056C12.7659 22.6343 12.9832 22.6178 13.3322 22.5465H13.3311Z" fill="white"/>
<path d="M16.5346 14.491C16.5367 18.3838 13.4177 21.5094 9.5282 21.5094C5.63871 21.5094 2.51526 18.386 2.51636 14.4965C2.51746 10.6147 5.64858 7.5022 9.54905 7.5055C13.4067 7.50879 16.5313 10.6333 16.5335 14.491H16.5346Z" fill="white"/>
<path d="M37.5723 14.4614C37.5778 10.5971 40.7286 7.49783 44.6412 7.50661C48.5021 7.51539 51.6014 10.6718 51.5894 14.5821C51.5784 18.4101 48.422 21.5149 44.5479 21.5105C40.676 21.5061 37.5668 18.364 37.5723 14.4614Z" fill="white"/>
</svg>
