<svg width="18" height="18" viewBox="0 0 18 18" fill="none" xmlns="http://www.w3.org/2000/svg">
<path d="M4.20867 0.395538C4.68873 0.514839 4.98965 0.843896 5.25425 1.24026C5.88209 2.18078 6.51385 3.11809 7.00495 4.14017C7.1246 4.38945 7.2172 4.65298 7.30445 4.91616C7.41199 5.24023 7.34789 5.55077 7.11784 5.79364C6.8422 6.08495 6.53949 6.35204 6.23715 6.617C5.84684 6.95887 5.83615 6.95567 6.03558 7.42361C6.92375 9.50657 8.42231 10.9592 10.5338 11.7829C10.7189 11.8552 10.8247 11.8321 10.9494 11.6754C11.1958 11.3652 11.4625 11.0707 11.7296 10.7772C12.0925 10.3787 12.5305 10.2651 13.0316 10.4806C13.3948 10.6369 13.7702 10.779 14.1057 10.9841C15.0038 11.5326 15.8863 12.1073 16.7691 12.6807C17.0476 12.8616 17.2125 13.1315 17.294 13.4563C17.3385 13.634 17.3264 13.8014 17.236 13.9535C17.1217 14.1461 17.0077 14.3441 16.8617 14.5122C15.918 15.5984 14.8026 16.4784 13.5889 17.2455C13.1705 17.5097 12.7574 17.4513 12.3251 17.3665C10.7987 17.0671 9.41483 16.4218 8.11961 15.5842C5.40738 13.8295 3.22328 11.565 1.62999 8.74768C0.997518 7.6291 0.5253 6.44534 0.314475 5.16865C0.30023 5.08211 0.280644 4.99628 0.26355 4.9101C0.26355 4.79151 0.26355 4.67328 0.26355 4.55469C0.319817 4.44643 0.372523 4.33639 0.432708 4.23062C1.01746 3.20249 1.7582 2.29331 2.57585 1.44503C2.98148 1.02409 3.40134 0.617046 3.9601 0.395538H4.20903H4.20867Z" fill="#DB3656"/>
</svg>
