<svg width="40" height="46" viewBox="0 0 40 46" fill="none" xmlns="http://www.w3.org/2000/svg">
<path d="M0.54834 3.6359V41.9493C0.54834 43.6916 1.96087 45.1029 3.70195 45.1029H36.1902C37.8545 45.1029 39.2035 43.7539 39.2035 42.0896V3.52319C39.2035 1.81808 37.8209 0.434326 36.1146 0.434326H3.74992C1.98126 0.434326 0.54834 1.86724 0.54834 3.6359ZM26.7053 40.0715L26.7041 40.0727H13.0225V36.5498H26.7053V40.0715ZM13.0009 32.2666V28.7713L26.6993 28.7701V32.2666H13.0009ZM30.0544 13.4409C28.5747 14.863 27.119 16.3103 25.6345 17.7276C25.3336 18.013 25.2676 18.284 25.3384 18.6761C25.7305 20.8477 26.101 23.0252 26.4751 25.2004L26.5195 25.469C24.4343 24.373 22.4162 23.3262 20.4137 22.2494C20.0552 22.0564 19.7902 22.0516 19.4304 22.2458C17.6114 23.2303 15.7744 24.1823 13.9434 25.144C13.7707 25.2351 13.5909 25.3131 13.3295 25.4378C13.5081 24.3526 13.6688 23.3418 13.8427 22.3333C14.0573 21.0779 14.3079 19.8284 14.4854 18.5694C14.5214 18.3128 14.3787 17.9459 14.1916 17.7564C12.7299 16.2875 11.237 14.8498 9.75497 13.4013C9.61947 13.2682 9.49117 13.1255 9.28253 12.9061C10.3269 12.7478 11.261 12.6051 12.1963 12.466C13.5321 12.2682 14.8727 12.0895 16.2037 11.8605C16.4255 11.8221 16.6953 11.6159 16.7984 11.4132C17.7361 9.56901 18.6414 7.70922 19.5575 5.85302C19.6523 5.65997 19.7566 5.47171 19.9005 5.19712H19.9017C20.0192 5.39977 20.1103 5.53766 20.1823 5.68395C21.1272 7.59171 22.0756 9.49706 23.0061 11.4108C23.1524 11.7094 23.3215 11.8413 23.668 11.8881C25.8348 12.1818 27.9968 12.5104 30.1599 12.8293L30.6587 12.9061C30.6791 13.0176 30.6791 13.0164 30.6995 13.1267C30.4921 13.2394 30.2199 13.2838 30.0556 13.4409H30.0544Z" fill="white"/>
<path d="M21.7422 18.9002C21.1691 18.6017 20.7446 18.3391 20.2865 18.1604C20.0839 18.0813 19.7505 18.0825 19.5479 18.1604C19.0778 18.3451 18.639 18.6101 18.0778 18.8331C18.6558 17.405 18.3308 16.297 16.9626 15.5296L16.9842 15.4121C17.507 15.3233 18.0454 15.2874 18.5526 15.1435C18.7961 15.0739 19.0539 14.8701 19.193 14.6555C19.458 14.2478 19.6426 13.7885 19.9136 13.2429C19.9136 13.2429 19.9136 13.2429 19.9148 13.2429C20.1642 13.7453 20.3992 14.1326 20.5527 14.5499C20.7122 14.9852 20.9964 15.1639 21.4329 15.2022C21.8669 15.2406 22.2974 15.315 22.9029 15.3965C22.5096 15.7838 22.2171 16.1135 21.8813 16.3893C21.4964 16.7047 21.3813 17.0512 21.5168 17.5345C21.6271 17.9302 21.6571 18.3487 21.7446 18.8978L21.7422 18.9002Z" fill="white"/>
</svg>
