<svg width="48" height="41" viewBox="0 0 48 41" fill="none" xmlns="http://www.w3.org/2000/svg">
<path d="M47.3513 20.6771V37.2867C47.2363 37.6325 47.1554 37.9949 47 38.3214C46.1878 40.0349 44.8046 40.8157 42.9246 40.8148C32.263 40.8084 21.6013 40.812 10.9406 40.812C8.86012 40.812 6.77966 40.8194 4.70013 40.8102C2.10462 40.7992 0.355267 39.0434 0.355267 36.4607C0.354347 31.3691 0.355267 26.2764 0.355267 21.1847C0.355267 21.0238 0.355267 20.8628 0.355267 20.666C0.55853 20.7212 0.705689 20.7534 0.848249 20.8003C7.26161 22.9194 13.8709 23.9136 20.5988 24.1546C24.4516 24.2926 28.3025 24.1997 32.1452 23.818C35.8435 23.451 39.4986 22.8504 43.092 21.904C44.5203 21.5278 45.9322 21.0873 47.3522 20.6761L47.3513 20.6771ZM23.8859 28.379C22.7537 28.379 21.6215 28.3753 20.4903 28.3799C19.645 28.3836 19.026 28.9694 19.026 29.7512C19.026 30.5321 19.6395 31.1281 20.4912 31.1318C22.7243 31.141 24.9584 31.14 27.1915 31.1318C28.0698 31.129 28.6944 30.5247 28.6787 29.7273C28.6631 28.9419 28.0515 28.3827 27.1915 28.379C26.0896 28.3744 24.9887 28.3781 23.8869 28.3781L23.8859 28.379Z" fill="white"/>
<path d="M47.3512 12.5107V17.7412C40.9066 20.024 34.2412 21.1158 27.4306 21.3972C22.4244 21.6041 17.4357 21.3935 12.4719 20.6798C8.45905 20.1031 4.52807 19.1898 0.695504 17.858C0.432458 17.7651 0.345082 17.6529 0.347841 17.377C0.361637 16.0011 0.35152 14.6242 0.355199 13.2483C0.360718 10.8193 2.15421 9.02851 4.58877 9.02575C7.14381 9.02207 9.69794 9.02575 12.253 9.02575C12.4158 9.02575 12.5786 9.02575 12.7754 9.02575C12.7754 8.08118 12.7653 7.19639 12.7772 6.3116C12.8195 3.14952 15.2164 0.747157 18.3757 0.731521C22.0317 0.714046 25.6876 0.726923 29.3436 0.727842C30.3259 0.727842 31.2576 0.944901 32.1028 1.44708C33.9662 2.55445 34.8841 4.2201 34.9255 6.37322C34.9421 7.24053 34.9283 8.10877 34.9283 9.02667C35.138 9.02667 35.3017 9.02667 35.4654 9.02667C38.0655 9.02667 40.6666 9.0184 43.2667 9.03035C44.6261 9.03679 45.7454 9.60059 46.5152 10.707C46.8886 11.2433 47.0781 11.9064 47.3503 12.5116L47.3512 12.5107ZM15.6294 9.05059C15.7351 9.04231 15.8409 9.02575 15.9476 9.02575C21.2168 9.02483 26.486 9.02483 31.7543 9.02575C31.86 9.02575 31.9658 9.04323 32.0743 9.05059C32.6519 8.93102 34.3351 8.84364 34.8906 9.05886H32.0615C32.0835 8.94206 32.1231 8.82525 32.124 8.70752C32.1286 7.86688 32.1369 7.02715 32.1222 6.18651C32.0973 4.70297 30.9155 3.51742 29.4236 3.51282C25.7097 3.50086 21.9958 3.5027 18.2819 3.51282C17.0136 3.51558 15.8648 4.34427 15.6873 5.60155C15.5282 6.73284 15.6441 7.90367 15.6358 9.05519H12.8278C13.6905 8.80134 15.2854 8.94022 15.6275 9.04967L15.6294 9.05059Z" fill="white"/>
</svg>
