<svg width="55" height="52" viewBox="0 0 55 52" fill="none" xmlns="http://www.w3.org/2000/svg">
<path d="M54.4115 6.73288V35.1853C54.4115 38.7285 51.5382 41.6007 47.995 41.5986C37.594 41.5922 17.1741 41.5848 6.77633 41.5806C3.23526 41.5795 0.366211 38.7084 0.366211 35.1673V6.75616C0.366211 3.21509 3.23526 0.344982 6.77633 0.342865C17.172 0.337574 37.5919 0.328049 47.9939 0.319583C51.5382 0.316408 54.4115 3.18863 54.4115 6.73288ZM44.7682 32.004C44.781 31.8802 44.8 31.7786 44.8 31.6781C44.8011 26.8205 44.7968 21.9618 44.8116 17.1042C44.8116 16.7603 44.6529 16.665 44.3883 16.5592C38.8767 14.359 33.3661 12.1556 27.8608 9.94059C27.5031 9.79666 27.2047 9.81888 26.8576 9.95858C21.8751 11.9598 16.8884 13.9505 11.9038 15.9454C10.3968 16.5486 8.89293 17.155 7.31713 17.7879C7.52561 17.8725 7.65472 17.9265 7.78384 17.9784C10.4709 19.0568 13.1547 20.1415 15.8481 21.2051C16.1783 21.3353 16.2926 21.4866 16.2894 21.8465C16.2693 23.8879 16.2915 25.9304 16.2693 27.9719C16.2651 28.3571 16.4005 28.5074 16.7434 28.6429C20.1384 29.9859 23.5229 31.3563 26.919 32.694C27.1804 32.7967 27.5497 32.8094 27.8079 32.7078C31.2231 31.3638 34.6244 29.9859 38.0364 28.6365C38.374 28.5032 38.4767 28.3423 38.4735 27.9888C38.4555 25.9294 38.4608 23.8699 38.4735 21.8105C38.4735 21.6475 38.5402 21.384 38.6492 21.3364C39.6112 20.9194 40.589 20.5416 41.641 20.1204V32.004H44.7704H44.7682Z" fill="white"/>
<path d="M13.1104 50.6226V48.5632C13.1104 48.2393 13.3728 47.9769 13.6966 47.9769C13.6988 47.9769 13.7009 47.9769 13.7019 47.9769C15.5487 47.9769 17.3965 47.9589 19.2432 47.9885C19.7237 47.9959 19.9671 47.8795 20.0962 47.3906C20.292 46.6455 20.5862 45.928 20.8105 45.1904C20.927 44.8105 21.1206 44.7491 21.7143 44.8411C25.4745 45.4222 29.2981 45.3777 33.0635 44.8348C33.6244 44.7544 33.816 44.8168 33.9292 45.1893C34.1589 45.9439 34.4531 46.6805 34.6573 47.4424C34.779 47.8954 35.0129 47.9917 35.4437 47.9875C37.2904 47.9663 39.1382 47.9779 40.9849 47.9779C41.0029 47.9779 41.0198 47.9779 41.0378 47.9779C41.3649 47.9779 41.6305 48.2436 41.6305 48.5706V50.6248C41.6305 50.9518 41.3649 51.2174 41.0378 51.2174H13.703C13.376 51.2174 13.1104 50.9518 13.1104 50.6248V50.6226Z" fill="white"/>
<path d="M15.8226 17.7677C17.3328 17.1655 18.7668 16.5951 20.1997 16.0215C22.4486 15.1209 24.6933 14.2118 26.9485 13.3292C27.1824 13.2382 27.5105 13.2212 27.7391 13.3112C31.3447 14.7325 34.9418 16.1781 38.5401 17.6185C38.6501 17.6619 38.7538 17.7201 38.9359 17.8069C37.5982 18.3413 36.3293 18.8472 35.0614 19.3552C32.6517 20.3203 30.2451 21.294 27.829 22.2422C27.593 22.3343 27.2649 22.366 27.0374 22.2771C23.3789 20.8389 19.7298 19.3763 16.0787 17.918C16.0141 17.8926 15.9581 17.8481 15.8215 17.7677H15.8226Z" fill="white"/>
<path d="M35.2901 22.6719C35.2901 23.8435 35.3007 24.9335 35.2774 26.0236C35.2742 26.1685 35.1345 26.3876 35.0044 26.4405C32.5512 27.4385 30.0928 28.4217 27.628 29.3879C27.4587 29.4546 27.211 29.4218 27.0322 29.3509C24.615 28.3994 22.2032 27.4353 19.7955 26.4638C19.6601 26.4088 19.4696 26.2522 19.4675 26.1389C19.4431 25.0034 19.4526 23.8667 19.4526 22.6539C20.8242 23.2011 22.1227 23.7186 23.4213 24.2382C24.578 24.7007 25.7379 25.1526 26.8851 25.6352C27.2386 25.7844 27.5402 25.7664 27.8884 25.6256C30.1648 24.7017 32.4486 23.7958 34.7303 22.8836C34.8901 22.8201 35.052 22.7619 35.2912 22.6709L35.2901 22.6719Z" fill="white"/>
</svg>
