<svg width="29" height="29" viewBox="0 0 29 29" fill="none" xmlns="http://www.w3.org/2000/svg">
<rect x="0.936768" y="0.698242" width="28" height="28" rx="2" fill="white"/>
<path fill-rule="evenodd" clip-rule="evenodd" d="M11.7928 6.59277H17.7742C20.5266 6.59277 22.7586 8.82482 22.7586 11.5772V17.5586C22.7586 20.311 20.5266 22.543 17.7742 22.543H11.7928C9.04039 22.543 6.80835 20.311 6.80835 17.5586V11.5772C6.80835 8.82482 9.04039 6.59277 11.7928 6.59277ZM17.7741 21.0476C19.6981 21.0476 21.2633 19.4824 21.2633 17.5584V11.5771C21.2633 9.65309 19.6981 8.08797 17.7741 8.08797H11.7928C9.86879 8.08797 8.30367 9.65309 8.30367 11.5771V17.5584C8.30367 19.4824 9.86879 21.0476 11.7928 21.0476H17.7741Z" fill="#1E1E1E"/>
<path fill-rule="evenodd" clip-rule="evenodd" d="M10.7959 14.5676C10.7959 12.3655 12.5813 10.5801 14.7835 10.5801C16.9856 10.5801 18.771 12.3655 18.771 14.5676C18.771 16.7698 16.9856 18.5552 14.7835 18.5552C12.5813 18.5552 10.7959 16.7698 10.7959 14.5676ZM12.2913 14.5677C12.2913 15.9414 13.4098 17.0599 14.7835 17.0599C16.1572 17.0599 17.2757 15.9414 17.2757 14.5677C17.2757 13.193 16.1572 12.0754 14.7835 12.0754C13.4098 12.0754 12.2913 13.193 12.2913 14.5677Z" fill="#1E1E1E"/>
<path d="M19.0702 10.8127C19.3636 10.8127 19.6015 10.5748 19.6015 10.2813C19.6015 9.98789 19.3636 9.75 19.0702 9.75C18.7767 9.75 18.5388 9.98789 18.5388 10.2813C18.5388 10.5748 18.7767 10.8127 19.0702 10.8127Z" fill="#1E1E1E"/>
</svg>
