<svg width="29" height="29" viewBox="0 0 29 29" fill="none" xmlns="http://www.w3.org/2000/svg">
<rect x="0.936768" y="0.698242" width="28" height="28" rx="2" fill="white"/>
<path d="M16.2265 12.1369C16.2265 12.596 16.2265 13.0522 16.2265 13.4392C16.4151 13.2765 16.6293 13.0937 16.8407 12.9078C17.4182 12.4004 18.0571 12.0063 18.837 11.9239C20.434 11.7554 22.0976 12.4419 22.7292 14.4131C22.9322 15.0462 23.0081 15.6981 23.0094 16.3589C23.0132 18.211 23.011 20.0635 23.0107 21.9156C23.0107 21.9623 23.0052 22.0093 23.002 22.0643C21.9036 22.0643 20.8146 22.0643 19.7059 22.0643C19.7059 21.9961 19.7059 21.9337 19.7059 21.8712C19.7059 20.1902 19.7133 18.5093 19.7002 16.8286C19.6973 16.4573 19.6628 16.0761 19.5708 15.7177C19.2594 14.5054 17.8493 14.0869 16.9005 14.9127C16.473 15.285 16.2317 15.7524 16.232 16.3318C16.2326 17.1561 16.2281 17.9807 16.2275 18.8049C16.2265 19.8273 16.2272 20.8498 16.2272 21.8725C16.2272 21.9353 16.2272 21.9977 16.2272 22.0665C15.1198 22.0665 14.035 22.0665 12.9373 22.0665C12.9373 18.7567 12.9373 15.4519 12.9373 12.1363C14.0266 12.1369 15.1153 12.1369 16.2265 12.1369Z" fill="#1E1E1E"/>
<path d="M11.0851 22.0653C9.98674 22.0653 8.89804 22.0653 7.79968 22.0653C7.79968 18.7529 7.79968 15.4478 7.79968 12.1338C8.89707 12.1338 9.98578 12.1338 11.0851 12.1338C11.0851 15.443 11.0851 18.7439 11.0851 22.0653Z" fill="#1E1E1E"/>
<path d="M11.3075 9.06311C11.3062 9.92178 10.6998 10.6109 9.83368 10.7373C9.23914 10.8242 8.67452 10.7541 8.19837 10.3584C7.65563 9.9073 7.49348 9.30858 7.64566 8.63715C7.79719 7.96861 8.25242 7.5745 8.90294 7.40238C9.28708 7.30072 9.67668 7.30683 10.0605 7.41268C10.822 7.62276 11.3088 8.27006 11.3075 9.06311Z" fill="#1E1E1E"/>
</svg>
