<svg width="29" height="29" viewBox="0 0 29 29" fill="none" xmlns="http://www.w3.org/2000/svg">
<rect x="0.936768" y="0.698242" width="28" height="28" rx="2" fill="white"/>
<path d="M23.8014 9.69254C23.1729 9.96823 22.5032 10.151 21.805 10.2397C22.5233 9.81085 23.0715 9.13693 23.3293 8.32463C22.6596 8.72391 21.9202 9.00595 21.1322 9.16333C20.4963 8.48625 19.59 8.06689 18.6013 8.06689C16.683 8.06689 15.1387 9.62388 15.1387 11.5326C15.1387 11.8073 15.162 12.0713 15.219 12.3227C12.3385 12.1822 9.78961 10.8017 8.07735 8.69856C7.77842 9.21721 7.60307 9.81085 7.60307 10.4499C7.60307 11.6499 8.22101 12.7136 9.1421 13.3294C8.58543 13.3188 8.03933 13.1572 7.57667 12.9026C7.57667 12.9132 7.57667 12.9269 7.57667 12.9407C7.57667 14.6244 8.77768 16.0229 10.3526 16.3451C10.0706 16.4222 9.76321 16.4592 9.44421 16.4592C9.22238 16.4592 8.99845 16.4465 8.78824 16.4C9.23717 17.7722 10.5111 18.7809 12.0258 18.8137C10.847 19.7358 9.35019 20.2915 7.72983 20.2915C7.44569 20.2915 7.17316 20.2788 6.90063 20.2439C8.43544 21.2337 10.2544 21.7988 12.2159 21.7988C18.5918 21.7988 22.0776 16.5173 22.0776 11.9393C22.0776 11.7861 22.0723 11.6382 22.0649 11.4914C22.7525 11.0034 23.3303 10.3939 23.8014 9.69254Z" fill="#1E1E1E"/>
</svg>
