<svg width="1446" height="750" viewBox="0 0 1446 750" fill="none" xmlns="http://www.w3.org/2000/svg">
<g opacity="0.44">
<rect x="1.07227" y="1.39746" width="1442.86" height="746.811" fill="#050506"/>
<rect x="0.572266" y="0.897461" width="1443.86" height="747.811" stroke="white" stroke-opacity="0.42"/>
</g>
<g style="mix-blend-mode:multiply" opacity="0.44">
<rect x="1.07227" y="1.39746" width="1442.86" height="746.811" fill="#1E1E1E"/>
<rect x="0.572266" y="0.897461" width="1443.86" height="747.811" stroke="white" stroke-opacity="0.42"/>
</g>
<g opacity="0.2">
<rect x="1.07227" y="77.7373" width="287.163" height="223.057" fill="#285F71"/>
<rect x="0.572266" y="77.2373" width="288.163" height="224.057" stroke="white" stroke-opacity="0.42"/>
</g>
<g opacity="0.2">
<rect x="289.072" y="77.7373" width="287.163" height="223.057" fill="#285F71"/>
<rect x="288.572" y="77.2373" width="288.163" height="224.057" stroke="white" stroke-opacity="0.42"/>
</g>
<g style="mix-blend-mode:overlay" opacity="0.67">
<rect x="577.072" y="77.7373" width="287.163" height="223.057" fill="#285F71"/>
<rect x="576.572" y="77.2373" width="288.163" height="224.057" stroke="white" stroke-opacity="0.42"/>
</g>
<g opacity="0.2">
<rect x="865.072" y="77.7373" width="287.163" height="223.057" fill="#285F71"/>
<rect x="864.572" y="77.2373" width="288.163" height="224.057" stroke="white" stroke-opacity="0.42"/>
</g>
<g style="mix-blend-mode:overlay" opacity="0.67">
<rect x="1153.08" y="77.7373" width="291.511" height="223.057" fill="#285F71"/>
<rect x="1152.58" y="77.2373" width="292.511" height="224.057" stroke="white" stroke-opacity="0.42"/>
</g>
<g opacity="0.2">
<rect x="1.07227" y="301.444" width="287.163" height="223.057" fill="#285F71"/>
<rect x="0.572266" y="300.944" width="288.163" height="224.057" stroke="white" stroke-opacity="0.42"/>
</g>
<g opacity="0.2">
<rect x="289.072" y="301.444" width="287.163" height="223.057" fill="#285F71"/>
<rect x="288.572" y="300.944" width="288.163" height="224.057" stroke="white" stroke-opacity="0.42"/>
</g>
<g style="mix-blend-mode:overlay" opacity="0.67">
<rect x="577.072" y="301.444" width="287.163" height="223.057" fill="#285F71"/>
<rect x="576.572" y="300.944" width="288.163" height="224.057" stroke="white" stroke-opacity="0.42"/>
</g>
<g style="mix-blend-mode:overlay" opacity="0.67">
<rect x="865.072" y="301.444" width="287.163" height="223.057" fill="#285F71"/>
<rect x="864.572" y="300.944" width="288.163" height="224.057" stroke="white" stroke-opacity="0.42"/>
</g>
<g opacity="0.2">
<rect x="1153.08" y="301.444" width="291.511" height="223.057" fill="#285F71"/>
<rect x="1152.58" y="300.944" width="292.511" height="224.057" stroke="white" stroke-opacity="0.42"/>
</g>
<g style="mix-blend-mode:overlay" opacity="0.67">
<rect x="1.07227" y="525.151" width="287.163" height="223.057" fill="#285F71"/>
<rect x="0.572266" y="524.651" width="288.163" height="224.057" stroke="white" stroke-opacity="0.42"/>
</g>
<g opacity="0.2">
<rect x="1.07227" y="1.39746" width="287.163" height="76.3399" fill="#285F71"/>
<rect x="0.572266" y="0.897461" width="288.163" height="77.3399" stroke="white" stroke-opacity="0.42"/>
</g>
<g opacity="0.2">
<rect x="289.072" y="525.151" width="287.163" height="223.057" fill="#285F71"/>
<rect x="288.572" y="524.651" width="288.163" height="224.057" stroke="white" stroke-opacity="0.42"/>
</g>
<g opacity="0.2">
<rect x="289.072" y="1.39746" width="287.163" height="76.3399" fill="#285F71"/>
<rect x="288.572" y="0.897461" width="288.163" height="77.3399" stroke="white" stroke-opacity="0.42"/>
</g>
<g opacity="0.2">
<rect x="577.072" y="525.151" width="287.163" height="223.057" fill="#285F71"/>
<rect x="576.572" y="524.651" width="288.163" height="224.057" stroke="white" stroke-opacity="0.42"/>
</g>
<g style="mix-blend-mode:overlay" opacity="0.67">
<rect x="577.072" y="1.39746" width="287.163" height="76.3399" fill="#285F71"/>
<rect x="576.572" y="0.897461" width="288.163" height="77.3399" stroke="white" stroke-opacity="0.42"/>
</g>
<g style="mix-blend-mode:overlay" opacity="0.67">
<rect x="865.072" y="525.151" width="287.163" height="223.057" fill="#285F71"/>
<rect x="864.572" y="524.651" width="288.163" height="224.057" stroke="white" stroke-opacity="0.42"/>
</g>
<g opacity="0.2">
<rect x="865.072" y="1.39746" width="287.163" height="76.3399" fill="#285F71"/>
<rect x="864.572" y="0.897461" width="288.163" height="77.3399" stroke="white" stroke-opacity="0.42"/>
</g>
<g opacity="0.2">
<rect x="1152.24" y="525.151" width="291.511" height="223.057" fill="#285F71"/>
<rect x="1151.74" y="524.651" width="292.511" height="224.057" stroke="white" stroke-opacity="0.42"/>
</g>
<g opacity="0.2">
<rect x="1153.08" y="1.39746" width="290.647" height="76.3399" fill="#285F71"/>
<rect x="1152.58" y="0.897461" width="291.647" height="77.3399" stroke="white" stroke-opacity="0.42"/>
</g>
<path d="M289.687 300.794H297.09M280.241 300.794H287.553" stroke="white" stroke-width="2"/>
<path d="M288.619 302.384L288.619 309.202M288.619 292.387L288.619 299.205" stroke="white" stroke-width="2"/>
<path d="M578.094 300.794H585.497M568.648 300.794H575.96" stroke="white" stroke-width="2"/>
<path d="M577.026 302.384L577.026 309.202M577.026 292.387L577.026 299.205" stroke="white" stroke-width="2"/>
<path d="M865.704 300.794H873.107M856.258 300.794H863.57" stroke="white" stroke-width="2"/>
<path d="M864.636 302.384L864.636 309.202M864.636 292.387L864.636 299.205" stroke="white" stroke-width="2"/>
<path d="M1153.61 300.794H1161.02M1144.17 300.794H1151.48" stroke="white" stroke-width="2"/>
<path d="M1152.55 302.384L1152.55 309.202M1152.55 292.387L1152.55 299.205" stroke="white" stroke-width="2"/>
<path d="M289.687 78.4405H297.09M280.241 78.4404H287.553" stroke="white" stroke-width="2"/>
<path d="M288.619 80.0303L288.619 86.8479M288.619 70.0332L288.619 76.8508" stroke="white" stroke-width="2"/>
<path d="M578.094 78.4405H585.497M568.648 78.4404H575.96" stroke="white" stroke-width="2"/>
<path d="M577.026 80.0303L577.026 86.8479M577.026 70.0332L577.026 76.8508" stroke="white" stroke-width="2"/>
<path d="M865.704 78.4405H873.107M856.258 78.4404H863.57" stroke="white" stroke-width="2"/>
<path d="M864.636 80.0303L864.636 86.8479M864.636 70.0332L864.636 76.8508" stroke="white" stroke-width="2"/>
<path d="M1153.61 78.4405H1161.02M1144.17 78.4404H1151.48" stroke="white" stroke-width="2"/>
<path d="M1152.55 80.0303L1152.55 86.8479M1152.55 70.0332L1152.55 76.8508" stroke="white" stroke-width="2"/>
<path d="M289.687 525.151H297.09M280.241 525.151H287.553" stroke="white" stroke-width="2"/>
<path d="M288.619 526.741L288.619 533.559M288.619 516.744L288.619 523.562" stroke="white" stroke-width="2"/>
<path d="M578.094 525.151H585.497M568.648 525.151H575.96" stroke="white" stroke-width="2"/>
<path d="M577.026 526.741L577.026 533.559M577.026 516.744L577.026 523.562" stroke="white" stroke-width="2"/>
<path d="M865.704 525.151H873.107M856.258 525.151H863.57" stroke="white" stroke-width="2"/>
<path d="M864.636 526.741L864.636 533.559M864.636 516.744L864.636 523.562" stroke="white" stroke-width="2"/>
<path d="M1153.61 525.151H1161.02M1144.17 525.151H1151.48" stroke="white" stroke-width="2"/>
<path d="M1152.55 526.741L1152.55 533.559M1152.55 516.744L1152.55 523.562" stroke="white" stroke-width="2"/>
</svg>
