<svg width="1443" height="598" viewBox="0 0 1443 598" fill="none" xmlns="http://www.w3.org/2000/svg">
<g opacity="0.2">
<rect x="288.922" y="1.19312" width="286.591" height="197.949" fill="#285F71"/>
<rect x="288.422" y="0.693115" width="287.591" height="198.949" stroke="white" stroke-opacity="0.42"/>
</g>
<g opacity="0.2">
<rect x="1.49512" y="1.19312" width="286.591" height="197.949" fill="#285F71"/>
<rect x="0.995117" y="0.693115" width="287.591" height="198.949" stroke="white" stroke-opacity="0.42"/>
</g>
<g opacity="0.2">
<rect x="576.348" y="1.19312" width="286.591" height="197.949" fill="#285F71"/>
<rect x="575.848" y="0.693115" width="287.591" height="198.949" stroke="white" stroke-opacity="0.42"/>
</g>
<g style="mix-blend-mode:overlay" opacity="0.67">
<rect x="863.774" y="1.19312" width="286.591" height="197.949" fill="#285F71"/>
<rect x="863.274" y="0.693115" width="287.591" height="198.949" stroke="white" stroke-opacity="0.42"/>
</g>
<g opacity="0.2">
<rect x="1151.2" y="1.19312" width="290.295" height="197.949" fill="#285F71"/>
<rect x="1150.7" y="0.693115" width="291.295" height="198.949" stroke="white" stroke-opacity="0.42"/>
</g>
<g opacity="0.2">
<rect x="1.49512" y="199.719" width="286.591" height="197.949" fill="#285F71"/>
<rect x="0.995117" y="199.219" width="287.591" height="198.949" stroke="white" stroke-opacity="0.42"/>
</g>
<g opacity="0.2">
<rect x="288.922" y="199.719" width="286.591" height="197.949" fill="#285F71"/>
<rect x="288.422" y="199.219" width="287.591" height="198.949" stroke="white" stroke-opacity="0.42"/>
</g>
<g opacity="0.2">
<rect x="576.348" y="199.719" width="286.591" height="197.949" fill="#285F71"/>
<rect x="575.848" y="199.219" width="287.591" height="198.949" stroke="white" stroke-opacity="0.42"/>
</g>
<g style="mix-blend-mode:overlay" opacity="0.67">
<rect x="863.774" y="199.719" width="286.591" height="197.949" fill="#285F71"/>
<rect x="863.274" y="199.219" width="287.591" height="198.949" stroke="white" stroke-opacity="0.42"/>
</g>
<g style="mix-blend-mode:overlay" opacity="0.67">
<rect x="1151.2" y="199.719" width="290.295" height="197.949" fill="#285F71"/>
<rect x="1150.7" y="199.219" width="291.295" height="198.949" stroke="white" stroke-opacity="0.42"/>
</g>
<g opacity="0.2">
<rect x="1.49512" y="398.244" width="286.591" height="197.949" fill="#285F71"/>
<rect x="0.995117" y="397.744" width="287.591" height="198.949" stroke="white" stroke-opacity="0.42"/>
</g>
<g style="mix-blend-mode:overlay" opacity="0.67">
<rect x="288.922" y="398.244" width="286.591" height="197.949" fill="#285F71"/>
<rect x="288.422" y="397.744" width="287.591" height="198.949" stroke="white" stroke-opacity="0.42"/>
</g>
<g opacity="0.2">
<rect x="576.348" y="398.244" width="286.591" height="197.949" fill="#285F71"/>
<rect x="575.848" y="397.744" width="287.591" height="198.949" stroke="white" stroke-opacity="0.42"/>
</g>
<g opacity="0.2">
<rect x="863.774" y="398.244" width="286.591" height="197.949" fill="#285F71"/>
<rect x="863.274" y="397.744" width="287.591" height="198.949" stroke="white" stroke-opacity="0.42"/>
</g>
<g style="mix-blend-mode:overlay" opacity="0.67">
<rect x="1151.2" y="398.245" width="290.294" height="197.949" fill="#285F71"/>
<rect x="1150.7" y="397.745" width="291.294" height="198.949" stroke="white" stroke-opacity="0.42"/>
</g>
<path d="M864.404 199.142H871.792M854.977 199.142H862.274" stroke="white" stroke-width="2"/>
<path d="M863.338 200.553L863.338 206.603M863.338 191.681L863.338 197.731" stroke="white" stroke-width="2"/>
<path d="M1151.74 199.142H1159.13M1142.31 199.142H1149.61" stroke="white" stroke-width="2"/>
<path d="M1150.68 200.553L1150.68 206.603M1150.68 191.681L1150.68 197.731" stroke="white" stroke-width="2"/>
<path d="M864.404 398.244H871.792M854.977 398.244H862.274" stroke="white" stroke-width="2"/>
<path d="M863.338 399.655L863.338 405.705M863.338 390.783L863.338 396.834" stroke="white" stroke-width="2"/>
<path d="M1151.74 398.244H1159.13M1142.31 398.244H1149.61" stroke="white" stroke-width="2"/>
<path d="M1150.68 399.655L1150.68 405.705M1150.68 390.783L1150.68 396.834" stroke="white" stroke-width="2"/>
</svg>
